<?xml version="1.0" encoding="utf-8"?>
<!-- Generator: Adobe Illustrator 16.0.0, SVG Export Plug-In . SVG Version: 6.00 Build 0)  -->
<!DOCTYPE svg PUBLIC "-//W3C//DTD SVG 1.1//EN" "http://www.w3.org/Graphics/SVG/1.1/DTD/svg11.dtd">
<svg version="1.1" id="Livello_1" xmlns="http://www.w3.org/2000/svg" xmlns:xlink="http://www.w3.org/1999/xlink" x="0px" y="0px"
	 width="15.792px" height="3.917px" viewBox="0 0 15.792 3.917" enable-background="new 0 0 15.792 3.917" xml:space="preserve">
<g>
	<g enable-background="new    ">
		<path fill="#FFFFFF" d="M0.556,2.718V1.353h0.546v0.273H0.829v1.092H0.556z M1.102,2.172V1.626h0.273v0.546H1.102z M1.375,1.626
			V1.353h0.272v0.273H1.375z M1.648,2.718V1.626h0.273v1.092H1.648z"/>
		<path fill="#FFFFFF" d="M2.195,2.445V1.626h0.273v0.819H2.195z M2.468,1.626V1.353h0.819v0.273H2.468z M2.468,2.718V2.445h0.819
			v0.273H2.468z M3.288,2.445V1.626H3.56v0.819H3.288z"/>
		<path fill="#FFFFFF" d="M3.833,2.445V1.626h0.273v0.819H3.833z M4.107,1.626V1.353h0.819v0.273H4.107z M4.107,2.718V2.445h0.819
			v0.273H4.107z M4.926,2.445V1.626h0.272v0.819H4.926z"/>
		<path fill="#FFFFFF" d="M5.472,2.718V1.353h0.273v0.273h0.273v0.273H5.746v0.819H5.472z M6.019,1.626V1.353h0.546v0.273H6.019z
			 M6.565,2.718V1.626h0.273v1.092H6.565z"/>
		<path fill="#FFFFFF" d="M7.384,2.445V1.626H7.112V1.353h0.272V0.807h0.273v0.546H7.93v0.273H7.658v0.819H7.384z M7.658,2.718
			V2.445h0.546v0.273H7.658z M8.204,2.445V2.172h0.273v0.273H8.204z"/>
		<path fill="#FFFFFF" d="M8.75,2.445V1.353h0.272v1.092H8.75z M9.023,2.718V2.445h0.273v0.273H9.023z M9.296,2.445V1.899H9.57
			v0.546H9.296z M9.57,2.718V2.445h0.271v0.273H9.57z M9.841,2.445V1.353h0.273v1.092H9.841z"/>
		<path fill="#FFFFFF" d="M10.389,2.445V1.626h0.272v0.273h0.819V1.626h0.272v0.546h-1.092v0.273H10.389z M10.664,1.626V1.353h0.818
			v0.273H10.664z M10.664,2.718V2.445h0.818v0.273H10.664z"/>
		<path fill="#FFFFFF" d="M12.028,2.445V1.626H12.3v0.273h0.82V1.626h0.272v0.546H12.3v0.273H12.028z M12.3,1.626V1.353h0.82v0.273
			H12.3z M12.3,2.718V2.445h0.82v0.273H12.3z"/>
		<path fill="#FFFFFF" d="M13.94,2.445V1.626h-0.272V1.353h0.272V0.807h0.272v0.546h0.272v0.273h-0.272v0.819H13.94z M14.212,2.718
			V2.445h0.547v0.273H14.212z M14.759,2.445V2.172h0.273v0.273H14.759z"/>
	</g>
	<g>
		<g>
			<polygon fill="#C7B299" points="-0.667,2.869 -0.856,2.869 -0.856,2.679 -0.856,2.492 -0.856,2.302 -0.856,2.113 -0.856,1.924 
				-0.856,1.735 -0.856,1.546 -0.856,1.357 -0.856,1.168 -0.856,0.979 -0.856,0.79 -1.045,0.79 -1.045,0.601 -1.234,0.601 
				-1.234,0.409 -1.423,0.409 -1.423,0.221 -1.612,0.221 -1.612,0.409 -1.802,0.409 -1.802,0.601 -1.991,0.601 -1.991,0.79 
				-1.802,0.79 -1.612,0.79 -1.612,0.979 -1.612,1.168 -1.423,1.168 -1.423,1.357 -1.423,1.546 -1.423,1.735 -1.423,1.924 
				-1.612,1.924 -1.612,2.113 -1.612,2.302 -1.612,2.492 -1.612,2.679 -1.612,2.869 -1.423,2.869 -1.423,3.058 -1.423,3.248 
				-1.234,3.248 -1.234,3.435 -1.045,3.435 -0.856,3.435 -0.856,3.248 -0.667,3.248 -0.667,3.058 -0.478,3.058 -0.478,2.869 			"/>
		</g>
		<g>
			<polygon fill="#C7B299" points="-1.991,2.869 -1.991,2.679 -2.181,2.679 -2.181,2.492 -2.181,2.302 -2.181,2.113 -1.991,2.113 
				-1.802,2.113 -1.802,1.924 -1.612,1.924 -1.612,1.735 -1.612,1.546 -1.802,1.546 -1.802,1.735 -1.991,1.735 -1.991,1.546 
				-1.991,1.357 -1.991,1.168 -1.991,0.979 -2.181,0.979 -2.181,0.79 -2.181,0.601 -2.369,0.601 -2.369,0.409 -2.558,0.409 
				-2.558,0.221 -2.747,0.221 -2.747,0.409 -2.937,0.409 -2.937,0.601 -3.125,0.601 -3.316,0.601 -3.316,0.79 -3.125,0.79 
				-2.937,0.79 -2.747,0.79 -2.747,0.979 -2.747,1.168 -2.558,1.168 -2.558,1.357 -2.558,1.546 -2.747,1.546 -2.937,1.546 
				-2.937,1.735 -2.937,1.924 -2.747,1.924 -2.747,2.113 -2.747,2.302 -2.747,2.492 -2.747,2.679 -2.747,2.869 -2.747,3.058 
				-2.558,3.058 -2.558,3.248 -2.369,3.248 -2.369,3.435 -2.181,3.435 -1.991,3.435 -1.991,3.248 -1.802,3.248 -1.802,3.058 
				-1.612,3.058 -1.612,2.869 -1.802,2.869 			"/>
		</g>
		<g>
			<polygon fill="#C7B299" points="-3.125,1.735 -3.316,1.735 -3.316,1.546 -3.316,1.357 -3.316,1.168 -3.316,0.979 -3.316,0.79 
				-3.504,0.79 -3.504,0.979 -3.693,0.979 -3.693,1.168 -3.882,1.168 -3.882,1.357 -3.882,1.546 -3.882,1.735 -3.882,1.924 
				-3.882,2.113 -3.882,2.302 -3.882,2.492 -3.882,2.679 -3.882,2.869 -4.071,2.869 -4.261,2.869 -4.261,3.058 -4.071,3.058 
				-4.071,3.248 -3.882,3.248 -3.882,3.435 -3.693,3.435 -3.504,3.435 -3.316,3.435 -3.316,3.248 -3.125,3.248 -3.125,3.058 
				-3.125,2.869 -3.316,2.869 -3.504,2.869 -3.693,2.869 -3.693,2.679 -3.504,2.679 -3.504,2.492 -3.316,2.492 -3.316,2.302 
				-3.125,2.302 -3.125,2.113 -2.937,2.113 -2.937,1.924 -3.125,1.924 			"/>
		</g>
	</g>
</g>
</svg>
