<svg xmlns="http://www.w3.org/2000/svg" xmlns:xlink="http://www.w3.org/1999/xlink" version="1.1" id="Layer_1" x="0px" y="0px" viewBox="0 0 14.2 23.6" enable-background="new 0 0 14.2 23.6" xml:space="preserve"><g><path fill="#AAAAAA" d="M7.4 23.6H6.8c-3.7 0-6.8-3-6.8-6.8v-10C0 3.1 3.1 0 6.8 0h0.6c3.8 0 6.8 3.1 6.8 6.8v10 C14.2 20.5 11.1 23.6 7.4 23.6z M6.8 1.6c-2.9 0-5.2 2.3-5.2 5.2v10c0 2.9 2.3 5.2 5.2 5.2h0.6c2.9 0 5.2-2.3 5.2-5.2v-10 c0-2.9-2.3-5.2-5.2-5.2H6.8z"/><circle fill="#AAAAAA" cx="7.1" cy="6.5" r="1.5"/></g></svg>