<?xml version="1.0" encoding="utf-8"?>
<!-- Generator: Adobe Illustrator 16.0.0, SVG Export Plug-In . SVG Version: 6.00 Build 0)  -->
<!DOCTYPE svg PUBLIC "-//W3C//DTD SVG 1.1//EN" "http://www.w3.org/Graphics/SVG/1.1/DTD/svg11.dtd">
<svg version="1.1" id="Livello_1" xmlns="http://www.w3.org/2000/svg" xmlns:xlink="http://www.w3.org/1999/xlink" x="0px" y="0px"
	 width="50px" height="50px" viewBox="0 0 50 50" enable-background="new 0 0 50 50" xml:space="preserve">
<circle opacity="0.3" fill="none" stroke="#FFFFFF" stroke-width="2" stroke-miterlimit="10" enable-background="new    " cx="24.718" cy="25" r="23.215"/>
<g id="XMLID_2_" opacity="0.3">
	<g>
		<rect x="38.866" y="33.479" fill="#FFFFFF" width="1.539" height="1.539"/>
		<rect x="37.328" y="35.018" fill="#FFFFFF" width="1.538" height="1.54"/>
		<rect x="37.328" y="33.479" fill="#FFFFFF" width="1.538" height="1.539"/>
		<rect x="35.787" y="36.558" fill="#FFFFFF" width="1.541" height="1.539"/>
		<rect x="35.787" y="35.018" fill="#FFFFFF" width="1.541" height="1.54"/>
		<rect x="35.787" y="33.479" fill="#FFFFFF" width="1.541" height="1.539"/>
		<rect x="35.787" y="31.938" fill="#FFFFFF" width="1.541" height="1.54"/>
		<rect x="35.787" y="30.399" fill="#FFFFFF" width="1.541" height="1.539"/>
		<rect x="35.787" y="28.859" fill="#FFFFFF" width="1.541" height="1.54"/>
		<rect x="35.787" y="27.321" fill="#FFFFFF" width="1.541" height="1.538"/>
		<rect x="35.787" y="25.781" fill="#FFFFFF" width="1.541" height="1.54"/>
		<rect x="35.787" y="24.242" fill="#FFFFFF" width="1.541" height="1.54"/>
		<rect x="35.787" y="22.703" fill="#FFFFFF" width="1.541" height="1.539"/>
		<rect x="35.787" y="21.163" fill="#FFFFFF" width="1.541" height="1.54"/>
		<rect x="35.787" y="19.624" fill="#FFFFFF" width="1.541" height="1.54"/>
		<rect x="35.787" y="18.084" fill="#FFFFFF" width="1.541" height="1.539"/>
		<rect x="35.787" y="16.545" fill="#FFFFFF" width="1.541" height="1.54"/>
		<rect x="34.248" y="36.558" fill="#FFFFFF" width="1.539" height="1.539"/>
		<rect x="34.248" y="35.018" fill="#FFFFFF" width="1.539" height="1.54"/>
		<rect x="34.248" y="33.479" fill="#FFFFFF" width="1.539" height="1.539"/>
		<rect x="34.248" y="31.938" fill="#FFFFFF" width="1.539" height="1.54"/>
		<rect x="34.248" y="30.399" fill="#FFFFFF" width="1.539" height="1.539"/>
		<rect x="34.248" y="28.859" fill="#FFFFFF" width="1.539" height="1.54"/>
		<rect x="34.248" y="27.321" fill="#FFFFFF" width="1.539" height="1.538"/>
		<rect x="34.248" y="25.781" fill="#FFFFFF" width="1.539" height="1.54"/>
		<rect x="34.248" y="24.242" fill="#FFFFFF" width="1.539" height="1.54"/>
		<rect x="34.248" y="22.703" fill="#FFFFFF" width="1.539" height="1.539"/>
		<rect x="34.248" y="21.163" fill="#FFFFFF" width="1.539" height="1.54"/>
		<rect x="34.248" y="19.624" fill="#FFFFFF" width="1.539" height="1.54"/>
		<rect x="34.248" y="18.084" fill="#FFFFFF" width="1.539" height="1.539"/>
		<rect x="34.248" y="16.545" fill="#FFFFFF" width="1.539" height="1.54"/>
		<rect x="34.248" y="15.005" fill="#FFFFFF" width="1.539" height="1.54"/>
		<rect x="32.709" y="35.018" fill="#FFFFFF" width="1.539" height="1.54"/>
		<rect x="32.709" y="33.479" fill="#FFFFFF" width="1.539" height="1.539"/>
		<rect x="32.709" y="31.938" fill="#FFFFFF" width="1.539" height="1.54"/>
		<rect x="32.709" y="30.399" fill="#FFFFFF" width="1.539" height="1.539"/>
		<rect x="32.709" y="28.859" fill="#FFFFFF" width="1.539" height="1.54"/>
		<rect x="32.709" y="27.321" fill="#FFFFFF" width="1.539" height="1.538"/>
		<rect x="32.709" y="25.781" fill="#FFFFFF" width="1.539" height="1.54"/>
		<rect x="32.709" y="24.242" fill="#FFFFFF" width="1.539" height="1.54"/>
		<rect x="32.709" y="22.703" fill="#FFFFFF" width="1.539" height="1.539"/>
		<rect x="32.709" y="21.163" fill="#FFFFFF" width="1.539" height="1.54"/>
		<rect x="32.709" y="19.624" fill="#FFFFFF" width="1.539" height="1.54"/>
		<rect x="32.709" y="18.084" fill="#FFFFFF" width="1.539" height="1.539"/>
		<rect x="32.709" y="16.545" fill="#FFFFFF" width="1.539" height="1.54"/>
		<rect x="32.709" y="15.005" fill="#FFFFFF" width="1.539" height="1.54"/>
		<rect x="32.709" y="13.442" fill="#FFFFFF" width="1.539" height="1.562"/>
		<rect x="31.169" y="31.938" fill="#FFFFFF" width="1.54" height="1.54"/>
		<rect x="31.169" y="30.399" fill="#FFFFFF" width="1.54" height="1.539"/>
		<rect x="31.169" y="28.859" fill="#FFFFFF" width="1.54" height="1.54"/>
		<rect x="31.169" y="27.321" fill="#FFFFFF" width="1.54" height="1.538"/>
		<rect x="31.169" y="25.781" fill="#FFFFFF" width="1.54" height="1.54"/>
		<rect x="31.169" y="18.084" fill="#FFFFFF" width="1.54" height="1.539"/>
		<rect x="31.169" y="16.545" fill="#FFFFFF" width="1.54" height="1.54"/>
		<rect x="31.169" y="15.005" fill="#FFFFFF" width="1.54" height="1.54"/>
		<rect x="31.169" y="13.442" fill="#FFFFFF" width="1.54" height="1.562"/>
		<rect x="31.169" y="11.904" fill="#FFFFFF" width="1.54" height="1.539"/>
		<rect x="29.618" y="33.479" fill="#FFFFFF" width="1.551" height="1.539"/>
		<rect x="29.618" y="24.242" fill="#FFFFFF" width="1.551" height="1.54"/>
		<rect x="29.618" y="22.703" fill="#FFFFFF" width="1.551" height="1.539"/>
		<rect x="29.618" y="15.005" fill="#FFFFFF" width="1.551" height="1.54"/>
		<rect x="29.618" y="13.442" fill="#FFFFFF" width="1.551" height="1.562"/>
		<rect x="28.079" y="35.018" fill="#FFFFFF" width="1.539" height="1.54"/>
		<rect x="28.079" y="33.479" fill="#FFFFFF" width="1.539" height="1.539"/>
		<rect x="28.079" y="25.781" fill="#FFFFFF" width="1.539" height="1.54"/>
		<rect x="28.079" y="24.242" fill="#FFFFFF" width="1.539" height="1.54"/>
		<rect x="28.079" y="15.005" fill="#FFFFFF" width="1.539" height="1.54"/>
		<rect x="26.54" y="36.558" fill="#FFFFFF" width="1.539" height="1.539"/>
		<rect x="26.54" y="35.018" fill="#FFFFFF" width="1.539" height="1.54"/>
		<rect x="26.54" y="33.479" fill="#FFFFFF" width="1.539" height="1.539"/>
		<rect x="26.54" y="31.938" fill="#FFFFFF" width="1.539" height="1.54"/>
		<rect x="26.54" y="25.781" fill="#FFFFFF" width="1.539" height="1.54"/>
		<rect x="26.54" y="24.242" fill="#FFFFFF" width="1.539" height="1.54"/>
		<rect x="26.54" y="22.703" fill="#FFFFFF" width="1.539" height="1.539"/>
		<rect x="26.54" y="21.163" fill="#FFFFFF" width="1.539" height="1.54"/>
		<rect x="26.54" y="19.624" fill="#FFFFFF" width="1.539" height="1.54"/>
		<rect x="26.54" y="18.084" fill="#FFFFFF" width="1.539" height="1.539"/>
		<rect x="25.001" y="36.558" fill="#FFFFFF" width="1.539" height="1.539"/>
		<rect x="25.001" y="35.018" fill="#FFFFFF" width="1.539" height="1.54"/>
		<rect x="25.001" y="33.479" fill="#FFFFFF" width="1.539" height="1.539"/>
		<rect x="25.001" y="31.938" fill="#FFFFFF" width="1.539" height="1.54"/>
		<rect x="25.001" y="30.399" fill="#FFFFFF" width="1.539" height="1.539"/>
		<rect x="25.001" y="28.859" fill="#FFFFFF" width="1.539" height="1.54"/>
		<rect x="25.001" y="27.321" fill="#FFFFFF" width="1.539" height="1.538"/>
		<rect x="25.001" y="25.781" fill="#FFFFFF" width="1.539" height="1.54"/>
		<rect x="25.001" y="24.242" fill="#FFFFFF" width="1.539" height="1.54"/>
		<rect x="25.001" y="22.703" fill="#FFFFFF" width="1.539" height="1.539"/>
		<rect x="25.001" y="21.163" fill="#FFFFFF" width="1.539" height="1.54"/>
		<rect x="25.001" y="19.624" fill="#FFFFFF" width="1.539" height="1.54"/>
		<rect x="25.001" y="18.084" fill="#FFFFFF" width="1.539" height="1.539"/>
		<rect x="25.001" y="16.545" fill="#FFFFFF" width="1.539" height="1.54"/>
		<rect x="25.001" y="15.005" fill="#FFFFFF" width="1.539" height="1.54"/>
		<rect x="23.461" y="35.018" fill="#FFFFFF" width="1.54" height="1.54"/>
		<rect x="23.461" y="33.479" fill="#FFFFFF" width="1.54" height="1.539"/>
		<rect x="23.461" y="31.938" fill="#FFFFFF" width="1.54" height="1.54"/>
		<rect x="23.461" y="30.399" fill="#FFFFFF" width="1.54" height="1.539"/>
		<rect x="23.461" y="28.859" fill="#FFFFFF" width="1.54" height="1.54"/>
		<rect x="23.461" y="27.321" fill="#FFFFFF" width="1.54" height="1.538"/>
		<rect x="23.461" y="25.781" fill="#FFFFFF" width="1.54" height="1.54"/>
		<rect x="23.461" y="24.242" fill="#FFFFFF" width="1.54" height="1.54"/>
		<rect x="23.461" y="22.703" fill="#FFFFFF" width="1.54" height="1.539"/>
		<rect x="23.461" y="21.163" fill="#FFFFFF" width="1.54" height="1.54"/>
		<rect x="23.461" y="19.624" fill="#FFFFFF" width="1.54" height="1.54"/>
		<rect x="23.461" y="18.084" fill="#FFFFFF" width="1.54" height="1.539"/>
		<rect x="23.461" y="16.545" fill="#FFFFFF" width="1.54" height="1.54"/>
		<rect x="23.461" y="15.005" fill="#FFFFFF" width="1.54" height="1.54"/>
		<rect x="23.461" y="13.442" fill="#FFFFFF" width="1.54" height="1.562"/>
		<rect x="21.922" y="33.479" fill="#FFFFFF" width="1.539" height="1.539"/>
		<rect x="21.922" y="31.938" fill="#FFFFFF" width="1.539" height="1.54"/>
		<rect x="21.922" y="30.399" fill="#FFFFFF" width="1.539" height="1.539"/>
		<rect x="21.922" y="28.859" fill="#FFFFFF" width="1.539" height="1.54"/>
		<rect x="21.922" y="27.321" fill="#FFFFFF" width="1.539" height="1.538"/>
		<rect x="21.922" y="25.781" fill="#FFFFFF" width="1.539" height="1.54"/>
		<rect x="21.922" y="24.242" fill="#FFFFFF" width="1.539" height="1.54"/>
		<rect x="21.922" y="22.703" fill="#FFFFFF" width="1.539" height="1.539"/>
		<rect x="21.922" y="18.084" fill="#FFFFFF" width="1.539" height="1.539"/>
		<rect x="21.922" y="16.545" fill="#FFFFFF" width="1.539" height="1.54"/>
		<rect x="21.922" y="15.005" fill="#FFFFFF" width="1.539" height="1.54"/>
		<rect x="21.922" y="13.442" fill="#FFFFFF" width="1.539" height="1.562"/>
		<rect x="21.922" y="11.904" fill="#FFFFFF" width="1.539" height="1.539"/>
		<rect x="20.382" y="24.242" fill="#FFFFFF" width="1.541" height="1.54"/>
		<rect x="20.382" y="22.703" fill="#FFFFFF" width="1.541" height="1.539"/>
		<rect x="20.382" y="15.005" fill="#FFFFFF" width="1.541" height="1.54"/>
		<rect x="20.382" y="13.442" fill="#FFFFFF" width="1.541" height="1.562"/>
		<rect x="18.843" y="25.781" fill="#FFFFFF" width="1.539" height="1.54"/>
		<rect x="18.843" y="15.005" fill="#FFFFFF" width="1.539" height="1.54"/>
		<rect x="17.292" y="35.018" fill="#FFFFFF" width="1.551" height="1.54"/>
		<rect x="17.292" y="33.479" fill="#FFFFFF" width="1.551" height="1.539"/>
		<rect x="17.292" y="27.321" fill="#FFFFFF" width="1.551" height="1.538"/>
		<rect x="17.292" y="25.781" fill="#FFFFFF" width="1.551" height="1.54"/>
		<rect x="17.292" y="24.242" fill="#FFFFFF" width="1.551" height="1.54"/>
		<rect x="17.292" y="15.005" fill="#FFFFFF" width="1.551" height="1.54"/>
		<rect x="15.751" y="36.558" fill="#FFFFFF" width="1.54" height="1.539"/>
		<rect x="15.751" y="35.018" fill="#FFFFFF" width="1.54" height="1.54"/>
		<rect x="15.751" y="33.479" fill="#FFFFFF" width="1.54" height="1.539"/>
		<rect x="15.751" y="28.859" fill="#FFFFFF" width="1.54" height="1.54"/>
		<rect x="15.751" y="27.321" fill="#FFFFFF" width="1.54" height="1.538"/>
		<rect x="15.751" y="25.781" fill="#FFFFFF" width="1.54" height="1.54"/>
		<rect x="15.751" y="24.242" fill="#FFFFFF" width="1.54" height="1.54"/>
		<rect x="15.751" y="22.703" fill="#FFFFFF" width="1.54" height="1.539"/>
		<rect x="15.751" y="21.163" fill="#FFFFFF" width="1.54" height="1.54"/>
		<rect x="15.751" y="19.624" fill="#FFFFFF" width="1.54" height="1.54"/>
		<rect x="15.751" y="18.084" fill="#FFFFFF" width="1.54" height="1.539"/>
		<rect x="15.751" y="16.545" fill="#FFFFFF" width="1.54" height="1.54"/>
		<rect x="14.213" y="36.558" fill="#FFFFFF" width="1.539" height="1.539"/>
		<rect x="14.213" y="35.018" fill="#FFFFFF" width="1.539" height="1.54"/>
		<rect x="14.213" y="33.479" fill="#FFFFFF" width="1.539" height="1.539"/>
		<rect x="14.213" y="30.399" fill="#FFFFFF" width="1.539" height="1.539"/>
		<rect x="14.213" y="28.859" fill="#FFFFFF" width="1.539" height="1.54"/>
		<rect x="14.213" y="27.321" fill="#FFFFFF" width="1.539" height="1.538"/>
		<rect x="14.213" y="25.781" fill="#FFFFFF" width="1.539" height="1.54"/>
		<rect x="14.213" y="24.242" fill="#FFFFFF" width="1.539" height="1.54"/>
		<rect x="14.213" y="22.703" fill="#FFFFFF" width="1.539" height="1.539"/>
		<rect x="14.213" y="21.163" fill="#FFFFFF" width="1.539" height="1.54"/>
		<rect x="14.213" y="19.624" fill="#FFFFFF" width="1.539" height="1.54"/>
		<rect x="14.213" y="18.084" fill="#FFFFFF" width="1.539" height="1.539"/>
		<rect x="12.673" y="36.558" fill="#FFFFFF" width="1.54" height="1.539"/>
		<rect x="12.673" y="35.018" fill="#FFFFFF" width="1.54" height="1.54"/>
		<rect x="12.673" y="33.479" fill="#FFFFFF" width="1.54" height="1.539"/>
		<rect x="12.673" y="31.938" fill="#FFFFFF" width="1.54" height="1.54"/>
		<rect x="12.673" y="30.399" fill="#FFFFFF" width="1.54" height="1.539"/>
		<rect x="12.673" y="28.859" fill="#FFFFFF" width="1.54" height="1.54"/>
		<rect x="12.673" y="27.321" fill="#FFFFFF" width="1.54" height="1.538"/>
		<rect x="12.673" y="25.781" fill="#FFFFFF" width="1.54" height="1.54"/>
		<rect x="12.673" y="24.242" fill="#FFFFFF" width="1.54" height="1.54"/>
		<rect x="12.673" y="22.703" fill="#FFFFFF" width="1.54" height="1.539"/>
		<rect x="12.673" y="21.163" fill="#FFFFFF" width="1.54" height="1.54"/>
		<rect x="12.673" y="19.624" fill="#FFFFFF" width="1.54" height="1.54"/>
		<rect x="11.134" y="35.018" fill="#FFFFFF" width="1.539" height="1.54"/>
		<rect x="11.134" y="33.479" fill="#FFFFFF" width="1.539" height="1.539"/>
		<rect x="9.595" y="33.479" fill="#FFFFFF" width="1.54" height="1.539"/>
	</g>
	<g>
		<polyline fill="#FFFFFF" points="34.248,38.097 35.787,38.097 37.328,38.097 		"/>
		<polyline fill="#FFFFFF" points="25.001,38.097 26.54,38.097 28.079,38.097 		"/>
		<polyline fill="#FFFFFF" points="32.709,36.558 34.248,36.558 35.787,36.558 37.328,36.558 38.866,36.558 		"/>
		<polyline fill="#FFFFFF" points="23.461,36.558 25.001,36.558 26.54,36.558 28.079,36.558 29.618,36.558 		"/>
		<polyline fill="#FFFFFF" points="32.709,35.018 34.248,35.018 35.787,35.018 37.328,35.018 38.866,35.018 40.405,35.018 		"/>
		<polyline fill="#FFFFFF" points="21.922,35.018 23.461,35.018 25.001,35.018 26.54,35.018 28.079,35.018 29.618,35.018 
			31.169,35.018 		"/>
		<polyline fill="#FFFFFF" points="9.595,35.018 11.134,35.018 12.673,35.018 14.213,35.018 15.751,35.018 17.292,35.018 
			18.843,35.018 		"/>
		<polyline fill="#FFFFFF" points="21.922,33.479 23.461,33.479 25.001,33.479 26.54,33.479 28.079,33.479 29.618,33.479 
			31.169,33.479 32.709,33.479 34.248,33.479 35.787,33.479 37.328,33.479 38.866,33.479 40.405,33.479 		"/>
		<polyline fill="#FFFFFF" points="9.595,33.479 11.134,33.479 12.673,33.479 14.213,33.479 15.751,33.479 17.292,33.479 
			18.843,33.479 		"/>
		<polyline fill="#FFFFFF" points="31.169,31.938 32.709,31.938 34.248,31.938 35.787,31.938 37.328,31.938 		"/>
		<polyline fill="#FFFFFF" points="21.922,31.938 23.461,31.938 25.001,31.938 26.54,31.938 28.079,31.938 		"/>
		<polyline fill="#FFFFFF" points="12.673,31.938 14.213,31.938 15.751,31.938 		"/>
		<polyline fill="#FFFFFF" points="31.169,30.399 32.709,30.399 34.248,30.399 35.787,30.399 37.328,30.399 		"/>
		<polyline fill="#FFFFFF" points="21.922,30.399 23.461,30.399 25.001,30.399 26.54,30.399 		"/>
		<polyline fill="#FFFFFF" points="12.673,30.399 14.213,30.399 15.751,30.399 17.292,30.399 		"/>
		<polyline fill="#FFFFFF" points="31.169,28.859 32.709,28.859 34.248,28.859 35.787,28.859 37.328,28.859 		"/>
		<polyline fill="#FFFFFF" points="21.922,28.859 23.461,28.859 25.001,28.859 26.54,28.859 		"/>
		<polyline fill="#FFFFFF" points="12.673,28.859 14.213,28.859 15.751,28.859 17.292,28.859 18.843,28.859 		"/>
		<polyline fill="#FFFFFF" points="31.169,27.321 32.709,27.321 34.248,27.321 35.787,27.321 37.328,27.321 		"/>
		<polyline fill="#FFFFFF" points="21.922,27.321 23.461,27.321 25.001,27.321 26.54,27.321 28.079,27.321 29.618,27.321 		"/>
		<polyline fill="#FFFFFF" points="12.673,27.321 14.213,27.321 15.751,27.321 17.292,27.321 18.843,27.321 20.382,27.321 		"/>
		<polyline fill="#FFFFFF" points="12.673,25.781 14.213,25.781 15.751,25.781 17.292,25.781 18.843,25.781 20.382,25.781 
			21.922,25.781 23.461,25.781 25.001,25.781 26.54,25.781 28.079,25.781 29.618,25.781 31.169,25.781 32.709,25.781 34.248,25.781 
			35.787,25.781 37.328,25.781 		"/>
		<polyline fill="#FFFFFF" points="32.709,24.242 34.248,24.242 35.787,24.242 37.328,24.242 		"/>
		<polyline fill="#FFFFFF" points="20.382,24.242 21.922,24.242 23.461,24.242 25.001,24.242 26.54,24.242 28.079,24.242 
			29.618,24.242 31.169,24.242 		"/>
		<polyline fill="#FFFFFF" points="12.673,24.242 14.213,24.242 15.751,24.242 17.292,24.242 18.843,24.242 		"/>
		<polyline fill="#FFFFFF" points="32.709,22.703 34.248,22.703 35.787,22.703 37.328,22.703 		"/>
		<line fill="#FFFFFF" x1="29.618" y1="22.703" x2="31.169" y2="22.703"/>
		<polyline fill="#FFFFFF" points="20.382,22.703 21.922,22.703 23.461,22.703 25.001,22.703 26.54,22.703 28.079,22.703 		"/>
		<polyline fill="#FFFFFF" points="12.673,22.703 14.213,22.703 15.751,22.703 17.292,22.703 		"/>
		<polyline fill="#FFFFFF" points="32.709,21.163 34.248,21.163 35.787,21.163 37.328,21.163 		"/>
		<polyline fill="#FFFFFF" points="23.461,21.163 25.001,21.163 26.54,21.163 28.079,21.163 		"/>
		<polyline fill="#FFFFFF" points="12.673,21.163 14.213,21.163 15.751,21.163 17.292,21.163 		"/>
		<polyline fill="#FFFFFF" points="31.169,19.624 32.709,19.624 34.248,19.624 35.787,19.624 37.328,19.624 		"/>
		<polyline fill="#FFFFFF" points="21.922,19.624 23.461,19.624 25.001,19.624 26.54,19.624 28.079,19.624 		"/>
		<polyline fill="#FFFFFF" points="12.673,19.624 14.213,19.624 15.751,19.624 17.292,19.624 		"/>
		<polyline fill="#FFFFFF" points="31.169,18.084 32.709,18.084 34.248,18.084 35.787,18.084 37.328,18.084 		"/>
		<polyline fill="#FFFFFF" points="21.922,18.084 23.461,18.084 25.001,18.084 26.54,18.084 28.079,18.084 		"/>
		<polyline fill="#FFFFFF" points="14.213,18.084 15.751,18.084 17.292,18.084 		"/>
		<polyline fill="#FFFFFF" points="28.079,16.545 29.618,16.545 31.169,16.545 32.709,16.545 34.248,16.545 35.787,16.545 
			37.328,16.545 		"/>
		<polyline fill="#FFFFFF" points="15.751,16.545 17.292,16.545 18.843,16.545 20.382,16.545 21.922,16.545 23.461,16.545 
			25.001,16.545 26.54,16.545 		"/>
		<polyline fill="#FFFFFF" points="28.079,15.005 29.618,15.005 31.169,15.005 32.709,15.005 34.248,15.005 35.787,15.005 		"/>
		<polyline fill="#FFFFFF" points="17.292,15.005 18.843,15.005 20.382,15.005 21.922,15.005 23.461,15.005 25.001,15.005 
			26.54,15.005 		"/>
		<polyline fill="#FFFFFF" points="29.618,13.442 31.169,13.442 32.709,13.442 34.248,13.442 		"/>
		<polyline fill="#FFFFFF" points="20.382,13.442 21.922,13.442 23.461,13.442 25.001,13.442 		"/>
		<line fill="#FFFFFF" x1="31.169" y1="11.904" x2="32.709" y2="11.904"/>
		<line fill="#FFFFFF" x1="21.922" y1="11.904" x2="23.461" y2="11.904"/>
		<line fill="#FFFFFF" x1="40.405" y1="33.479" x2="40.405" y2="35.018"/>
		<polyline fill="#FFFFFF" points="38.866,33.479 38.866,35.018 38.866,36.558 		"/>
		<polyline fill="#FFFFFF" points="37.328,16.545 37.328,18.084 37.328,19.624 37.328,21.163 37.328,22.703 37.328,24.242 
			37.328,25.781 37.328,27.321 37.328,28.859 37.328,30.399 37.328,31.938 37.328,33.479 37.328,35.018 37.328,36.558 
			37.328,38.097 		"/>
		<polyline fill="#FFFFFF" points="35.787,15.005 35.787,16.545 35.787,18.084 35.787,19.624 35.787,21.163 35.787,22.703 
			35.787,24.242 35.787,25.781 35.787,27.321 35.787,28.859 35.787,30.399 35.787,31.938 35.787,33.479 35.787,35.018 
			35.787,36.558 35.787,38.097 		"/>
		<polyline fill="#FFFFFF" points="34.248,13.442 34.248,15.005 34.248,16.545 34.248,18.084 34.248,19.624 34.248,21.163 
			34.248,22.703 34.248,24.242 34.248,25.781 34.248,27.321 34.248,28.859 34.248,30.399 34.248,31.938 34.248,33.479 
			34.248,35.018 34.248,36.558 34.248,38.097 		"/>
		<polyline fill="#FFFFFF" points="32.709,11.904 32.709,13.442 32.709,15.005 32.709,16.545 32.709,18.084 32.709,19.624 
			32.709,21.163 32.709,22.703 32.709,24.242 32.709,25.781 32.709,27.321 32.709,28.859 32.709,30.399 32.709,31.938 
			32.709,33.479 32.709,35.018 32.709,36.558 		"/>
		<polyline fill="#FFFFFF" points="31.169,22.703 31.169,24.242 31.169,25.781 31.169,27.321 31.169,28.859 31.169,30.399 
			31.169,31.938 31.169,33.479 31.169,35.018 		"/>
		<polyline fill="#FFFFFF" points="31.169,11.904 31.169,13.442 31.169,15.005 31.169,16.545 31.169,18.084 31.169,19.624 		"/>
		<polyline fill="#FFFFFF" points="29.618,33.479 29.618,35.018 29.618,36.558 		"/>
		<polyline fill="#FFFFFF" points="29.618,22.703 29.618,24.242 29.618,25.781 29.618,27.321 		"/>
		<polyline fill="#FFFFFF" points="29.618,13.442 29.618,15.005 29.618,16.545 		"/>
		<polyline fill="#FFFFFF" points="28.079,31.938 28.079,33.479 28.079,35.018 28.079,36.558 28.079,38.097 		"/>
		<polyline fill="#FFFFFF" points="28.079,18.084 28.079,19.624 28.079,21.163 28.079,22.703 28.079,24.242 28.079,25.781 
			28.079,27.321 		"/>
		<line fill="#FFFFFF" x1="28.079" y1="15.005" x2="28.079" y2="16.545"/>
		<polyline fill="#FFFFFF" points="26.54,15.005 26.54,16.545 26.54,18.084 26.54,19.624 26.54,21.163 26.54,22.703 26.54,24.242 
			26.54,25.781 26.54,27.321 26.54,28.859 26.54,30.399 26.54,31.938 26.54,33.479 26.54,35.018 26.54,36.558 26.54,38.097 		"/>
		<polyline fill="#FFFFFF" points="25.001,13.442 25.001,15.005 25.001,16.545 25.001,18.084 25.001,19.624 25.001,21.163 
			25.001,22.703 25.001,24.242 25.001,25.781 25.001,27.321 25.001,28.859 25.001,30.399 25.001,31.938 25.001,33.479 
			25.001,35.018 25.001,36.558 25.001,38.097 		"/>
		<polyline fill="#FFFFFF" points="23.461,11.904 23.461,13.442 23.461,15.005 23.461,16.545 23.461,18.084 23.461,19.624 
			23.461,21.163 23.461,22.703 23.461,24.242 23.461,25.781 23.461,27.321 23.461,28.859 23.461,30.399 23.461,31.938 
			23.461,33.479 23.461,35.018 23.461,36.558 		"/>
		<polyline fill="#FFFFFF" points="21.922,22.703 21.922,24.242 21.922,25.781 21.922,27.321 21.922,28.859 21.922,30.399 
			21.922,31.938 21.922,33.479 21.922,35.018 		"/>
		<polyline fill="#FFFFFF" points="21.922,11.904 21.922,13.442 21.922,15.005 21.922,16.545 21.922,18.084 21.922,19.624 		"/>
		<polyline fill="#FFFFFF" points="18.843,33.479 18.843,35.018 18.843,36.558 		"/>
		<polyline fill="#FFFFFF" points="18.843,24.242 18.843,25.781 18.843,27.321 18.843,28.859 		"/>
		<line fill="#FFFFFF" x1="18.843" y1="15.005" x2="18.843" y2="16.545"/>
		<polyline fill="#FFFFFF" points="17.292,33.479 17.292,35.018 17.292,36.558 17.292,38.097 		"/>
		<polyline fill="#FFFFFF" points="17.292,15.005 17.292,16.545 17.292,18.084 17.292,19.624 17.292,21.163 17.292,22.703 
			17.292,24.242 17.292,25.781 17.292,27.321 17.292,28.859 17.292,30.399 		"/>
		<polyline fill="#FFFFFF" points="15.751,33.479 15.751,35.018 15.751,36.558 15.751,38.097 		"/>
		<polyline fill="#FFFFFF" points="15.751,16.545 15.751,18.084 15.751,19.624 15.751,21.163 15.751,22.703 15.751,24.242 
			15.751,25.781 15.751,27.321 15.751,28.859 15.751,30.399 15.751,31.938 		"/>
		<polyline fill="#FFFFFF" points="14.213,18.084 14.213,19.624 14.213,21.163 14.213,22.703 14.213,24.242 14.213,25.781 
			14.213,27.321 14.213,28.859 14.213,30.399 14.213,31.938 14.213,33.479 14.213,35.018 14.213,36.558 14.213,38.097 		"/>
		<polyline fill="#FFFFFF" points="12.673,19.624 12.673,21.163 12.673,22.703 12.673,24.242 12.673,25.781 12.673,27.321 
			12.673,28.859 12.673,30.399 12.673,31.938 12.673,33.479 12.673,35.018 12.673,36.558 12.673,38.097 		"/>
	</g>
</g>
</svg>
