<?xml version="1.0" encoding="utf-8"?>
<!-- Generator: Adobe Illustrator 16.0.0, SVG Export Plug-In . SVG Version: 6.00 Build 0)  -->
<!DOCTYPE svg PUBLIC "-//W3C//DTD SVG 1.1//EN" "http://www.w3.org/Graphics/SVG/1.1/DTD/svg11.dtd">
<svg version="1.1" id="Livello_1" xmlns="http://www.w3.org/2000/svg" xmlns:xlink="http://www.w3.org/1999/xlink" x="0px" y="0px"
	 width="50px" height="50px" viewBox="0 0 50 50" enable-background="new 0 0 50 50" xml:space="preserve">
<circle opacity="0.3" fill="none" stroke="#FFFFFF" stroke-width="2" stroke-miterlimit="10" cx="24.718" cy="25" r="23.215"/>
<g opacity="0.3">
	<g>
		<path fill="#FFFFFF" d="M30.668,35.828c-0.375,0-0.665-0.101-0.876-0.304c-0.211-0.202-0.316-0.445-0.316-0.725
			c0-0.265,0.101-0.495,0.304-0.69c0.202-0.194,0.483-0.291,0.842-0.291h1.974v-15.23l-6.005,13.836
			c-0.328,0.748-0.843,1.121-1.544,1.121c-0.639,0-1.106-0.335-1.402-1.005l-6.241-13.858v15.137h1.927
			c0.374,0,0.66,0.097,0.865,0.291c0.201,0.195,0.304,0.426,0.304,0.69c0,0.279-0.105,0.522-0.316,0.725
			c-0.209,0.203-0.502,0.304-0.876,0.304h-6.089c-0.374,0-0.663-0.098-0.865-0.293c-0.203-0.194-0.304-0.432-0.304-0.713
			c0-0.265,0.101-0.498,0.304-0.701c0.202-0.201,0.483-0.303,0.842-0.303h1.967V16.18h-1.315c-0.358,0-0.638-0.096-0.84-0.29
			c-0.203-0.195-0.304-0.425-0.304-0.69c0-0.281,0.104-0.521,0.313-0.725c0.212-0.202,0.495-0.303,0.854-0.303h3.16
			c0.467,0,0.827,0.272,1.076,0.817l7.034,15.494l6.778-15.61c0.187-0.468,0.539-0.701,1.053-0.701h3.112
			c0.374,0,0.666,0.101,0.877,0.303c0.21,0.203,0.315,0.443,0.315,0.725c0,0.266-0.105,0.495-0.315,0.69
			c-0.211,0.194-0.496,0.29-0.854,0.29H34.84v17.639h1.989c0.357,0,0.635,0.097,0.83,0.291c0.193,0.195,0.292,0.426,0.292,0.69
			c0,0.279-0.106,0.522-0.315,0.725c-0.21,0.203-0.495,0.304-0.853,0.304H30.668z"/>
	</g>
</g>
</svg>
