<?xml version="1.0" encoding="utf-8"?>
<!-- Generator: Adobe Illustrator 16.0.0, SVG Export Plug-In . SVG Version: 6.00 Build 0)  -->
<!DOCTYPE svg PUBLIC "-//W3C//DTD SVG 1.1//EN" "http://www.w3.org/Graphics/SVG/1.1/DTD/svg11.dtd">
<svg version="1.1" id="Livello_1" xmlns="http://www.w3.org/2000/svg" xmlns:xlink="http://www.w3.org/1999/xlink" x="0px" y="0px"
	 width="60px" height="50.25px" viewBox="0 3.875 60 50.25" enable-background="new 0 3.875 60 50.25" xml:space="preserve">
<g>
	<polygon fill="#808080" points="55.938,44.289 55.005,44.289 55.004,44.289 53.812,44.289 52.232,44.289 52.232,43 52.232,41.512 
		52.232,41.511 52.232,40.25 52.232,38.736 52.232,35.96 52.232,33.188 52.232,30.409 52.232,27.632 52.232,24.857 52.232,22.081 
		52.228,22.081 52.228,22.08 52.232,22.08 52.232,19.303 52.232,16.528 52.232,13.752 49.453,13.752 49.453,10.975 46.678,10.975 
		46.678,8.157 43.902,8.157 43.902,5.382 41.125,5.382 41.125,8.157 38.328,8.157 38.328,10.975 35.552,10.975 35.552,13.752 
		38.328,13.752 41.125,13.752 41.125,16.528 41.125,19.303 43.902,19.303 43.902,20.906 43.9,20.906 43.9,23.594 43.902,23.594 
		43.902,24.857 43.902,27.632 43.902,30.409 41.125,30.409 41.125,33.188 41.125,35.96 41.125,38.736 41.125,40.25 41.125,41.511 
		41.125,41.512 41.125,43 41.125,44.289 43.902,44.289 43.902,47.064 43.902,49.842 46.678,49.842 46.745,49.842 46.745,49.843 
		46.678,49.843 46.678,52.617 49.453,52.617 52.232,52.617 52.232,49.843 52.166,49.843 52.166,49.842 52.232,49.842 55.004,49.842 
		55.004,47.064 55.005,47.064 55.938,47.064 57.781,47.064 57.781,44.289 	"/>
	<polygon fill="#808080" points="36.5,44.289 35.552,44.289 35.551,44.289 35.551,41.512 32.777,41.512 32.667,41.512 
		32.667,41.511 32.777,41.511 32.777,38.736 32.777,35.96 32.777,33.188 34.219,33.188 35.551,33.188 35.552,33.188 36.469,33.188 
		38.328,33.188 38.328,30.409 41.125,30.409 41.125,27.632 41.125,24.857 38.328,24.857 38.328,27.632 36.469,27.632 35.552,27.632 
		35.551,27.632 35.551,24.857 35.551,23.875 35.552,23.875 35.552,21.188 35.551,21.188 35.551,19.303 35.551,16.528 32.777,16.528 
		32.777,13.752 32.777,10.975 30.002,10.975 30.002,8.157 30.001,8.157 27.225,8.157 27.225,5.382 24.449,5.382 24.449,8.157 
		21.672,8.157 21.672,10.975 18.896,10.975 16.098,10.975 16.098,13.752 18.896,13.752 21.672,13.752 24.449,13.752 24.449,16.528 
		24.449,19.303 27.225,19.303 27.225,21.188 27.225,22.08 27.225,22.081 27.225,23.875 27.225,24.857 24.449,24.857 21.672,24.857 
		21.672,27.632 21.672,30.409 24.449,30.409 24.449,33.188 24.449,35.96 24.449,38.736 24.449,40.25 24.449,41.511 24.449,41.512 
		24.449,43 24.449,44.289 24.449,47.064 27.225,47.064 27.225,49.842 30.001,49.842 30.002,49.842 30.056,49.842 30.056,49.843 
		30.001,49.843 30.001,52.617 32.777,52.617 35.551,52.617 35.551,49.843 35.477,49.843 35.477,49.842 35.551,49.842 35.552,49.842 
		36.5,49.842 38.328,49.842 38.328,47.064 41.125,47.064 41.125,44.289 38.328,44.289 	"/>
	<polygon fill="#808080" points="18.896,27.632 16.098,27.632 16.098,24.857 16.098,22.081 16.098,22.081 16.098,22.08 
		16.098,22.08 16.098,19.303 16.098,16.528 16.098,13.752 13.323,13.752 13.323,16.528 10.547,16.528 10.547,19.303 7.77,19.303 
		7.77,22.08 7.771,22.08 7.771,22.081 7.77,22.081 7.77,24.857 7.77,27.632 7.77,30.409 7.77,33.188 7.77,35.96 7.77,38.736 
		7.77,41.511 10.547,41.511 13.323,41.511 13.323,38.736 16.098,38.736 16.098,35.96 18.896,35.96 18.896,33.188 21.672,33.188 
		21.672,30.409 18.896,30.409 	"/>
	<polygon fill="#808080" points="13.323,44.289 10.547,44.289 10.547,41.512 7.77,41.512 7.77,44.289 4.996,44.289 2.219,44.289 
		2.219,47.064 4.996,47.064 4.996,49.842 7.77,49.842 7.771,49.842 7.771,49.843 7.77,49.843 7.77,52.617 10.547,52.617 
		13.323,52.617 16.098,52.617 16.098,51.187 16.098,49.843 16.098,49.842 18.896,49.842 18.896,47.064 18.896,44.289 16.098,44.289 
			"/>
</g>
</svg>
