<?xml version="1.0" encoding="utf-8"?>
<!-- Generator: Adobe Illustrator 16.0.0, SVG Export Plug-In . SVG Version: 6.00 Build 0)  -->
<!DOCTYPE svg PUBLIC "-//W3C//DTD SVG 1.1//EN" "http://www.w3.org/Graphics/SVG/1.1/DTD/svg11.dtd">
<svg version="1.1" id="Livello_1" xmlns="http://www.w3.org/2000/svg" xmlns:xlink="http://www.w3.org/1999/xlink" x="0px" y="0px"
	 width="206.167px" height="31.5px" viewBox="0 0 206.167 31.5" enable-background="new 0 0 206.167 31.5" xml:space="preserve">
<g>
	<g enable-background="new    ">
		<path fill="#FFFFFF" d="M1.68,29.137V10.01h7.648v3.824H5.504v15.303H1.68z M9.328,21.482v-7.647h3.824v7.647H9.328z
			 M13.152,13.834V10.01h3.81v3.824H13.152z M16.975,29.137V13.834h3.824v15.303H16.975z"/>
		<path fill="#FFFFFF" d="M24.637,25.305V13.834h3.823v11.471H24.637z M28.46,13.834V10.01h11.479v3.824H28.46z M28.46,29.137
			v-3.832h11.479v3.832H28.46z M39.953,25.305V13.834h3.811v11.471H39.953z"/>
		<path fill="#FFFFFF" d="M47.586,25.305V13.834h3.824v11.471H47.586z M51.424,13.834V10.01h11.473v3.824H51.424z M51.424,29.137
			v-3.832h11.473v3.832H51.424z M62.896,25.305V13.834h3.816v11.471H62.896z"/>
		<path fill="#FFFFFF" d="M70.551,29.137V10.01h3.822v3.824h3.824v3.824h-3.811v11.479H70.551z M78.211,13.834V10.01h7.648v3.824
			H78.211z M85.859,29.137V13.834h3.824v15.303H85.859z"/>
		<path fill="#FFFFFF" d="M97.33,25.305V13.834H93.52V10.01h3.811V2.363h3.83v7.647h3.824v3.824h-3.811v11.471H97.33z
			 M101.174,29.137v-3.832h7.648v3.832H101.174z M108.822,25.305v-3.823h3.824v3.823H108.822z"/>
		<path fill="#FFFFFF" d="M116.463,25.305V10.01h3.816v15.295H116.463z M120.293,29.137v-3.832h3.832v3.832H120.293z
			 M124.125,25.305v-7.646h3.83v7.646H124.125z M127.955,29.137v-3.832h3.803v3.832H127.955z M131.758,25.305V10.01h3.818v15.295
			H131.758z"/>
		<path fill="#FFFFFF" d="M139.434,25.305V13.834h3.816v3.824h11.465v-3.824h3.803v7.647h-15.295v3.823H139.434z M143.277,13.834
			V10.01h11.465v3.824H143.277z M143.277,29.137v-3.832h11.465v3.832H143.277z"/>
		<path fill="#FFFFFF" d="M162.391,25.305V13.834h3.816v3.824h11.492v-3.824h3.803v7.647h-15.295v3.823H162.391z M166.207,13.834
			V10.01h11.492v3.824H166.207z M166.207,29.137v-3.832h11.492v3.832H166.207z"/>
		<path fill="#FFFFFF" d="M189.178,25.305V13.834h-3.818V10.01h3.818V2.363h3.816v7.647h3.803v3.824h-3.803v11.471H189.178z
			 M192.994,29.137v-3.832h7.662v3.832H192.994z M200.656,25.305v-3.823h3.83v3.823H200.656z"/>
	</g>
</g>
</svg>
