<?xml version="1.0" encoding="utf-8"?>
<!-- Generator: Adobe Illustrator 16.0.0, SVG Export Plug-In . SVG Version: 6.00 Build 0)  -->
<!DOCTYPE svg PUBLIC "-//W3C//DTD SVG 1.1//EN" "http://www.w3.org/Graphics/SVG/1.1/DTD/svg11.dtd">
<svg version="1.1" id="Livello_1" xmlns="http://www.w3.org/2000/svg" xmlns:xlink="http://www.w3.org/1999/xlink" x="0px" y="0px"
	 width="60px" height="60px" viewBox="0 0 60 60" enable-background="new 0 0 60 60" xml:space="preserve">
<g>
	<g>
		<path fill="#333333" d="M42.853,52.741c-0.835,0-1.482-0.225-1.953-0.678c-0.47-0.451-0.705-0.991-0.705-1.614
			c0-0.591,0.225-1.103,0.678-1.538c0.451-0.433,1.076-0.649,1.876-0.649h4.399V14.32L33.766,45.155
			c-0.731,1.665-1.878,2.498-3.44,2.498c-1.423,0-2.465-0.748-3.124-2.239L13.293,14.528v33.733h4.293
			c0.833,0,1.471,0.217,1.927,0.649c0.449,0.436,0.677,0.947,0.677,1.538c0,0.623-0.233,1.164-0.705,1.614
			c-0.466,0.453-1.119,0.678-1.952,0.678H3.965c-0.833,0-1.479-0.218-1.929-0.653c-0.452-0.433-0.677-0.962-0.677-1.588
			c0-0.59,0.225-1.11,0.677-1.562c0.451-0.45,1.078-0.676,1.877-0.676h4.384V8.954h-2.93c-0.798,0-1.423-0.214-1.873-0.647
			C3.042,7.872,2.817,7.359,2.817,6.77c0-0.628,0.233-1.164,0.699-1.616C3.989,4.704,4.619,4.479,5.42,4.479h7.042
			c1.04,0,1.843,0.607,2.397,1.823l15.675,34.528L45.639,6.041c0.417-1.042,1.2-1.562,2.345-1.562h6.937
			c0.833,0,1.484,0.226,1.955,0.675c0.468,0.453,0.703,0.988,0.703,1.616c0,0.59-0.235,1.103-0.703,1.538
			c-0.471,0.433-1.106,0.647-1.905,0.647h-2.819v39.308h4.432c0.797,0,1.414,0.217,1.848,0.649c0.432,0.436,0.651,0.947,0.651,1.538
			c0,0.623-0.236,1.164-0.703,1.614c-0.468,0.453-1.102,0.678-1.902,0.678H42.853z"/>
	</g>
</g>
</svg>
