<?xml version="1.0" encoding="utf-8"?>
<!-- Generator: Adobe Illustrator 16.0.0, SVG Export Plug-In . SVG Version: 6.00 Build 0)  -->
<!DOCTYPE svg PUBLIC "-//W3C//DTD SVG 1.1//EN" "http://www.w3.org/Graphics/SVG/1.1/DTD/svg11.dtd">
<svg version="1.1" id="Livello_1" xmlns="http://www.w3.org/2000/svg" xmlns:xlink="http://www.w3.org/1999/xlink" x="0px" y="0px"
	 width="60px" height="60px" viewBox="0 0 60 60" enable-background="new 0 0 60 60" xml:space="preserve">
<g>
	<g>
		<path fill="#C7B299" d="M48.152,27.911c-1.324,0-2.397,1.072-2.397,2.397v16.374v1.775v1.492H9.815V13.938h2h1.793h17.871
			c1.324,0,2.397-1.08,2.397-2.398c0-1.326-1.073-2.395-2.397-2.395h-18.07h-1.593h-2c-2.646,0-4.792,2.142-4.792,4.793V49.95
			c0,2.646,2.145,4.792,4.792,4.792h35.94c2.647,0,4.793-2.146,4.793-4.792v-1.492v-1.774V30.309
			C50.548,28.983,49.475,27.911,48.152,27.911z"/>
	</g>
	<path fill="#C7B299" d="M30.617,33.956c0,0,22.283-12.482,24.359-28.697C38.759,7.336,26.279,29.618,26.279,29.618l-4.834,0.635
		l-8.596,8.593l8.944-2.923l-4.412,6.933l6.932-4.41l-2.923,8.94l8.595-8.591L30.617,33.956z"/>
</g>
</svg>
