<?xml version="1.0" encoding="utf-8"?>
<!-- Generator: Adobe Illustrator 16.0.0, SVG Export Plug-In . SVG Version: 6.00 Build 0)  -->
<!DOCTYPE svg PUBLIC "-//W3C//DTD SVG 1.1//EN" "http://www.w3.org/Graphics/SVG/1.1/DTD/svg11.dtd">
<svg version="1.1" id="Livello_1" xmlns="http://www.w3.org/2000/svg" xmlns:xlink="http://www.w3.org/1999/xlink" x="0px" y="0px"
	 width="125.324px" height="61.5px" viewBox="0 0 125.324 61.5" enable-background="new 0 0 125.324 61.5" xml:space="preserve">
<g>
	<g>
		<g>
			<g>
				<path fill="#55ACEE" d="M51.937,11.94c3.166,0.419,6.918,1.146,11.271,2.184c7.305,1.744,12.867,2.617,16.685,2.617
					c2.78,0,7.259-0.825,13.433-2.475c6.174-1.648,10.203-2.476,12.09-2.476c3.298,0,6.857,0.284,10.674,0.849
					c0.708,0.095,1.828,0.4,3.359,0.922c1.531,0.516,2.697,0.846,3.498,0.987l0.778-0.848l-0.353-1.062
					c-4.243-1.837-10.111-2.756-17.604-2.756c-2.121,0-5.48,0.919-10.075,2.31c-4.595,1.39-7.952,2.307-10.073,2.307H71.126
					c-0.142,0-2.074-0.739-5.795-1.777c-3.914-1.132-6.058-1.833-6.436-1.879c-2.288-0.502-5.312-0.889-9.061-1.058
					C50.578,10.487,51.28,11.166,51.937,11.94z"/>
				<path fill="#55ACEE" d="M50.388,49.992c0.553-0.01,1.104-0.023,1.65-0.023c0.567,0,3.582,0.706,9.049,2.12
					c5.796,1.509,9.144,2.335,10.039,2.476c1.367,0.188,5.703,0.283,13.01,0.283c0.988,0,3.957-0.806,8.906-2.171
					c4.947-1.367,8.084-2.176,9.401-2.176h10.606l9.285,2.315l0.165-0.656v-0.281l-0.165-0.852
					c-4.998-1.788-10.627-2.685-17.509-2.685l-12.852,2.898c-5.329,1.133-10.816,1.697-16.611,1.697c-1.604,0-4.063-0.4-7.456-1.201
					c-4.951-1.133-7.521-1.721-7.757-1.769l-1.263-0.849c-1.602-0.283-3.2-0.564-4.801-0.848c-0.663-0.126-1.273-0.23-1.844-0.314
					C51.653,48.67,51.036,49.348,50.388,49.992z"/>
				<path fill="#55ACEE" d="M58.896,31.658l1.271,1.132c1.229-0.188,3.442,0.596,6.648,1.679c3.393,1.13,5.631,2.031,6.715,2.031
					h10.605c1.082,0,4.205-0.969,9.365-2.501c5.16-1.53,7.979-2.499,8.449-2.499h11.453c0,0,1.097,0.158,3.097,1.006V33.5h2.629
					h1.557h1.813v-0.994l0.446-1.006h-0.352c-6.459-1-11.172-2.607-14.141-2.607c-2.779,0-6.999,1.153-12.652,2.805
					c-5.658,1.649-9.17,2.803-10.533,2.803H71.622c0,0-2.122-0.957-4.122-1.71v-0.283c-4-1.026-6.073-1.834-9.017-2.447
					c0.002,0.515,0.063,1.031,0.035,1.549C58.621,31.624,58.794,31.641,58.896,31.658z"/>
				<path fill="#55ACEE" d="M62.925,23.668c7.496,1.745,13.293,2.616,17.392,2.616c2.404,0,6.423-0.361,12.054-1.892
					c5.633-1.532,8.992-1.893,10.073-1.893h11.737l7.281,1c0,0,0.039,0,1.039,0v-0.536l0.446-0.464h-0.352
					c-6.08-1-12.54-2.525-19.371-2.525c-0.189,0-1.344,0.162-3.463,0.681c-6.506,1.603-10.653,2.521-12.444,2.849
					c-3.63,0.614-7.87,0.896-12.728,0.896c-2.023,0-5.134-0.672-9.33-1.993c-4.104-1.277-6.949-2.099-8.541-2.455
					c0.328,0.842,0.615,1.697,0.863,2.568C59.261,22.851,61.042,23.23,62.925,23.668z"/>
				<path fill="#55ACEE" d="M109.232,38.798c-2.923,0-7.448,1.295-13.575,2.851C89.532,43.205,85.547,44.5,83.71,44.5H72.681
					c-0.328,0-3.133-1.248-8.41-2.709c-3.199-0.86-5.598-1.756-7.204-2.172c-0.228,0.664-0.487,1.18-0.763,1.815
					c1.383,0.224,2.765,0.386,4.146,0.609c1.133,0.143,3.229,0.746,6.293,1.876c2.736,0.99,4.832,1.469,6.293,1.469
					c-0.143,0,1.414,0.039,4.664,0.134c1.934,0.047,3.441-0.004,4.524-0.146c2.026-0.283,5.067-0.933,9.122-1.946
					c4.052-1.012,7.115-1.637,9.189-1.875c1.604-0.234,6.15-0.352,13.645-0.352c0.283,0,1.604,0.328,3.958,0.987
					c2.593,0.707,3.582,1.132,4.196,1.273l0.165-0.849v-0.283l-0.165-0.777C115.501,39.717,111.54,38.798,109.232,38.798z"/>
			</g>
			<path fill="#55ACEE" d="M30.593,60.5h-0.002c-3.201,0-6.375-1.221-9.428-2.271C6.045,53.03-2.022,36.158,3.179,21.042
				C7.202,9.339,18.22,1.304,30.587,1.304c3.202,0,6.374,0.445,9.433,1.496C55.134,7.999,63.204,25.17,58.004,40.286
				C53.978,51.991,42.961,60.5,30.593,60.5z M30.587,3.017c-11.565,0-21.862,7.353-25.626,18.295
				C2.607,28.158,3.06,35.509,6.234,42.015c3.177,6.507,8.694,11.385,15.541,13.739c2.858,0.982,5.824,1.48,8.815,1.48
				c11.565,0.002,21.864-7.352,25.627-18.295c4.861-14.131-2.684-29.581-16.814-34.442C36.547,3.515,33.581,3.017,30.587,3.017z"/>
			<g>
				<path fill="#55ACEE" d="M12.613,25.055c-0.014,0.049-0.035,0.084-0.068,0.104c-0.034,0.021-0.069,0.028-0.104,0.02
					c-0.034-0.009-0.062-0.028-0.083-0.062c-0.018-0.032-0.022-0.071-0.011-0.12l0.095-0.405l-2.733-0.65l1.621,1.214
					c0.088,0.066,0.119,0.145,0.098,0.236c-0.02,0.083-0.076,0.134-0.176,0.153l-2.004,0.385l2.725,0.646l0.088-0.365
					c0.009-0.049,0.033-0.084,0.064-0.104c0.032-0.021,0.064-0.026,0.099-0.018c0.036,0.007,0.065,0.028,0.085,0.062
					c0.021,0.034,0.023,0.075,0.014,0.126l-0.255,1.058c-0.01,0.049-0.032,0.084-0.063,0.104c-0.031,0.022-0.065,0.026-0.104,0.018
					c-0.032-0.008-0.058-0.028-0.08-0.06c-0.019-0.035-0.024-0.074-0.013-0.119l0.096-0.407l-3.051-0.726l-0.088,0.362
					c-0.01,0.047-0.031,0.082-0.062,0.102c-0.031,0.021-0.066,0.027-0.1,0.019c-0.035-0.01-0.064-0.031-0.086-0.064
					c-0.02-0.033-0.023-0.073-0.012-0.121l0.145-0.604c0.014-0.06,0.062-0.099,0.139-0.115l2.242-0.438l-1.828-1.37
					c-0.055-0.041-0.074-0.093-0.059-0.159l0.139-0.588c0.013-0.047,0.035-0.083,0.068-0.104c0.031-0.021,0.066-0.027,0.104-0.019
					c0.035,0.009,0.062,0.029,0.082,0.062c0.018,0.033,0.021,0.074,0.01,0.121l-0.083,0.345l3.051,0.726l0.093-0.392
					c0.011-0.046,0.033-0.079,0.065-0.1c0.031-0.019,0.063-0.024,0.1-0.018c0.034,0.01,0.064,0.031,0.084,0.065
					s0.025,0.074,0.012,0.12L12.613,25.055z"/>
				<path fill="#55ACEE" d="M12.685,20.982c0.05,0.022,0.081,0.048,0.098,0.082c0.015,0.031,0.015,0.062,0.002,0.093
					c-0.014,0.029-0.035,0.051-0.066,0.064c-0.035,0.011-0.07,0.011-0.108-0.006l-0.44-0.153l-0.42,0.934l1.408,0.635l0.791-1.761
					l-0.695-0.37c-0.031-0.016-0.053-0.042-0.063-0.076c-0.008-0.034-0.007-0.068,0.007-0.101c0.015-0.033,0.041-0.054,0.077-0.067
					c0.038-0.011,0.079-0.007,0.128,0.015l0.773,0.347c0.047,0.022,0.074,0.054,0.09,0.096c0.014,0.042,0.009,0.086-0.012,0.135
					l-1.193,2.649c-0.023,0.045-0.051,0.077-0.088,0.09c-0.037,0.016-0.07,0.016-0.104,0c-0.032-0.015-0.055-0.04-0.066-0.075
					c-0.012-0.038-0.006-0.078,0.012-0.122l0.221-0.486l-2.863-1.29L9.998,22c-0.021,0.046-0.047,0.073-0.081,0.086
					c-0.035,0.013-0.069,0.013-0.101-0.002c-0.035-0.016-0.059-0.043-0.071-0.078c-0.015-0.037-0.012-0.077,0.009-0.122l1.135-2.513
					c0.021-0.048,0.053-0.081,0.092-0.097c0.043-0.018,0.084-0.016,0.133,0.006l0.773,0.35c0.039,0.018,0.064,0.043,0.078,0.075
					c0.01,0.033,0.01,0.064-0.003,0.096c-0.014,0.03-0.036,0.053-0.064,0.068c-0.029,0.015-0.064,0.016-0.1,0.002l-0.716-0.274
					l-0.784,1.743l1.23,0.556l0.423-0.934l-0.363-0.206c-0.04-0.024-0.062-0.051-0.076-0.084c-0.014-0.031-0.014-0.062,0-0.091
					c0.014-0.03,0.037-0.05,0.072-0.06c0.035-0.009,0.078-0.004,0.127,0.019L12.685,20.982z"/>
				<path fill="#55ACEE" d="M12.722,16.884c-0.155,0.218-0.227,0.424-0.213,0.617c0.01,0.192,0.104,0.35,0.273,0.47
					c0.05,0.035,0.097,0.061,0.145,0.08c0.047,0.02,0.088,0.033,0.125,0.042c0.037,0.011,0.082,0.008,0.133-0.005
					c0.053-0.014,0.094-0.024,0.122-0.035c0.03-0.012,0.077-0.035,0.142-0.075s0.115-0.071,0.146-0.096
					c0.031-0.022,0.092-0.065,0.176-0.126l0.365-0.264c0.143-0.102,0.266-0.179,0.375-0.238c0.107-0.058,0.219-0.1,0.332-0.128
					c0.115-0.027,0.224-0.027,0.33-0.003s0.211,0.073,0.319,0.15c0.149,0.103,0.26,0.22,0.332,0.348
					c0.075,0.128,0.113,0.26,0.113,0.395s-0.023,0.268-0.07,0.398c-0.048,0.131-0.115,0.261-0.205,0.39
					c-0.104,0.145-0.239,0.277-0.408,0.4c-0.169,0.12-0.336,0.192-0.494,0.215c0.209,0.148,0.286,0.262,0.226,0.343
					c-0.028,0.044-0.063,0.066-0.105,0.064c-0.041,0-0.097-0.026-0.169-0.076l-0.806-0.567c-0.04-0.027-0.062-0.061-0.067-0.096
					c-0.005-0.036,0.003-0.07,0.027-0.102c0.021-0.033,0.053-0.054,0.09-0.061c0.039-0.008,0.08,0.003,0.119,0.031l0.305,0.215
					c0.11,0.077,0.279,0.062,0.507-0.049s0.415-0.271,0.562-0.482c0.145-0.203,0.213-0.402,0.202-0.601
					c-0.005-0.197-0.11-0.368-0.319-0.513c-0.08-0.056-0.16-0.094-0.238-0.111c-0.076-0.017-0.154-0.015-0.24,0.009
					c-0.082,0.024-0.16,0.058-0.238,0.102c-0.078,0.045-0.172,0.104-0.279,0.182l-0.439,0.319c-0.098,0.072-0.184,0.13-0.252,0.173
					c-0.068,0.044-0.149,0.085-0.24,0.124c-0.094,0.039-0.176,0.062-0.253,0.066c-0.077,0.006-0.161-0.005-0.25-0.029
					c-0.094-0.024-0.187-0.07-0.276-0.135c-0.248-0.173-0.381-0.394-0.4-0.659s0.059-0.526,0.236-0.779
					c0.25-0.352,0.503-0.545,0.762-0.577c-0.158-0.111-0.205-0.212-0.143-0.3c0.025-0.037,0.057-0.053,0.095-0.05
					c0.039,0.004,0.092,0.028,0.157,0.073l0.65,0.457c0.044,0.031,0.069,0.066,0.078,0.104c0.008,0.039-0.002,0.075-0.025,0.11
					c-0.022,0.031-0.053,0.051-0.089,0.058c-0.038,0.009-0.075,0-0.114-0.026l-0.232-0.166c-0.091-0.049-0.193-0.058-0.307-0.028
					c-0.115,0.03-0.219,0.084-0.314,0.164C12.88,16.685,12.796,16.779,12.722,16.884z"/>
				<path fill="#55ACEE" d="M15.575,13.586c-0.195,0.186-0.302,0.376-0.329,0.566c-0.023,0.19,0.035,0.36,0.182,0.513
					c0.041,0.044,0.084,0.078,0.125,0.106c0.043,0.026,0.082,0.049,0.116,0.064c0.036,0.018,0.079,0.023,0.132,0.02
					c0.053-0.002,0.096-0.007,0.127-0.011c0.029-0.004,0.082-0.019,0.152-0.047c0.072-0.028,0.125-0.049,0.162-0.065
					s0.102-0.047,0.195-0.091l0.41-0.19c0.156-0.071,0.295-0.127,0.414-0.162c0.115-0.037,0.232-0.058,0.349-0.062
					c0.118-0.004,0.226,0.014,0.325,0.059c0.098,0.044,0.193,0.113,0.285,0.208c0.125,0.13,0.213,0.266,0.26,0.406
					c0.049,0.14,0.061,0.277,0.035,0.408c-0.025,0.132-0.073,0.258-0.144,0.378c-0.071,0.121-0.161,0.236-0.274,0.345
					c-0.129,0.122-0.289,0.228-0.477,0.314c-0.191,0.086-0.366,0.126-0.527,0.119c0.178,0.184,0.23,0.31,0.158,0.378
					c-0.04,0.038-0.079,0.054-0.12,0.045c-0.037-0.009-0.087-0.045-0.15-0.108l-0.682-0.71c-0.033-0.035-0.051-0.071-0.049-0.106
					c0-0.036,0.016-0.066,0.044-0.096c0.03-0.026,0.064-0.041,0.1-0.041c0.041,0,0.079,0.018,0.111,0.053l0.259,0.27
					c0.094,0.098,0.263,0.113,0.507,0.047s0.457-0.188,0.643-0.365c0.18-0.173,0.284-0.356,0.314-0.551
					c0.031-0.197-0.041-0.384-0.219-0.566c-0.067-0.071-0.137-0.122-0.21-0.153c-0.073-0.032-0.152-0.046-0.239-0.037
					c-0.086,0.007-0.17,0.024-0.254,0.054c-0.085,0.028-0.188,0.07-0.308,0.128l-0.494,0.229c-0.111,0.052-0.201,0.092-0.279,0.121
					c-0.076,0.029-0.162,0.055-0.26,0.077c-0.098,0.021-0.186,0.026-0.262,0.016c-0.075-0.008-0.156-0.035-0.24-0.075
					c-0.086-0.042-0.166-0.104-0.246-0.187c-0.209-0.218-0.297-0.457-0.266-0.723c0.028-0.264,0.158-0.505,0.379-0.719
					c0.312-0.298,0.596-0.441,0.857-0.423c-0.133-0.14-0.162-0.246-0.083-0.321c0.031-0.032,0.067-0.042,0.103-0.032
					c0.039,0.011,0.085,0.046,0.141,0.104l0.551,0.572c0.038,0.038,0.057,0.076,0.057,0.115c0,0.04-0.017,0.074-0.045,0.104
					c-0.027,0.026-0.061,0.039-0.1,0.039c-0.04,0.001-0.073-0.016-0.104-0.049l-0.199-0.205c-0.082-0.065-0.178-0.095-0.297-0.086
					c-0.117,0.009-0.229,0.042-0.337,0.102C15.767,13.422,15.666,13.498,15.575,13.586z"/>
				<path fill="#55ACEE" d="M19.394,14.756c-0.043,0.027-0.083,0.038-0.12,0.031c-0.036-0.009-0.065-0.027-0.085-0.06
					c-0.02-0.029-0.025-0.062-0.018-0.102c0.008-0.036,0.031-0.068,0.07-0.095l0.225-0.145l-0.69-3.29l-0.571,0.37
					c-0.041,0.028-0.082,0.039-0.119,0.031c-0.038-0.007-0.066-0.027-0.088-0.058c-0.018-0.029-0.021-0.063-0.016-0.1
					c0.01-0.039,0.031-0.07,0.072-0.097l0.799-0.518c0.104-0.066,0.209-0.056,0.325,0.033l2.694,2.069l0.207-0.135
					c0.042-0.026,0.078-0.035,0.117-0.027c0.035,0.007,0.062,0.026,0.079,0.056c0.022,0.031,0.028,0.066,0.02,0.105
					c-0.009,0.038-0.035,0.071-0.074,0.096l-0.965,0.626c-0.041,0.026-0.083,0.037-0.121,0.029
					c-0.039-0.007-0.069-0.027-0.086-0.058c-0.021-0.031-0.026-0.064-0.02-0.102c0.01-0.036,0.035-0.067,0.074-0.094l0.492-0.317
					l-0.805-0.624l-1.273,0.824l0.227,0.998l0.42-0.271c0.041-0.026,0.08-0.036,0.119-0.027c0.037,0.007,0.066,0.025,0.084,0.056
					c0.022,0.031,0.027,0.066,0.02,0.104c-0.01,0.036-0.037,0.069-0.078,0.098L19.394,14.756z M19.464,12.933l1.105-0.717
					l-1.54-1.233L19.464,12.933z"/>
				<path fill="#55ACEE" d="M24.812,10.122l0.541,1.342c0.021,0.053,0.023,0.1,0.007,0.138c-0.013,0.041-0.041,0.068-0.077,0.084
					c-0.037,0.015-0.078,0.014-0.117-0.005c-0.041-0.018-0.072-0.057-0.094-0.11l-0.146-0.36c-0.008,0.196-0.092,0.385-0.252,0.571
					c-0.162,0.186-0.373,0.332-0.63,0.436c-0.454,0.182-0.883,0.165-1.291-0.054c-0.408-0.217-0.723-0.602-0.947-1.157
					c-0.203-0.504-0.23-0.967-0.078-1.39c0.152-0.42,0.451-0.722,0.899-0.904c0.228-0.091,0.454-0.128,0.683-0.11
					c0.227,0.017,0.41,0.083,0.55,0.196l-0.125-0.309c-0.017-0.044-0.017-0.084-0.001-0.123c0.018-0.037,0.047-0.063,0.085-0.079
					c0.039-0.017,0.077-0.017,0.116-0.003c0.039,0.016,0.068,0.047,0.086,0.094l0.346,0.852c0.017,0.045,0.017,0.085,0.002,0.119
					c-0.02,0.033-0.043,0.058-0.082,0.073c-0.077,0.029-0.143,0.004-0.193-0.082c-0.143-0.221-0.338-0.366-0.588-0.434
					c-0.25-0.071-0.508-0.053-0.771,0.054c-0.39,0.156-0.636,0.413-0.744,0.77c-0.107,0.354-0.072,0.75,0.104,1.186
					c0.191,0.478,0.459,0.808,0.805,0.989c0.344,0.184,0.691,0.203,1.046,0.061c0.289-0.116,0.498-0.282,0.63-0.498
					s0.188-0.454,0.168-0.715l-0.209-0.518l-0.361,0.146c-0.045,0.019-0.084,0.021-0.121,0.005
					c-0.037-0.014-0.062-0.038-0.076-0.073c-0.014-0.033-0.014-0.066,0.002-0.103c0.018-0.034,0.047-0.06,0.09-0.077l0.828-0.334
					c0.044-0.018,0.084-0.02,0.119-0.007c0.036,0.016,0.059,0.038,0.072,0.072c0.016,0.035,0.014,0.07-0.002,0.105
					c-0.017,0.038-0.049,0.063-0.096,0.082L24.812,10.122z"/>
				<path fill="#55ACEE" d="M28.015,9.619c0.011,0.052,0.009,0.092-0.01,0.123c-0.017,0.032-0.043,0.05-0.076,0.057
					c-0.03,0.007-0.061,0-0.09-0.018c-0.029-0.02-0.048-0.05-0.06-0.09l-0.127-0.449l-1.004,0.199l0.299,1.515l1.892-0.374
					l-0.104-0.783c-0.003-0.034,0.005-0.066,0.028-0.094c0.021-0.028,0.049-0.046,0.086-0.053c0.035-0.007,0.066,0.002,0.1,0.023
					c0.029,0.023,0.049,0.061,0.058,0.111l0.165,0.831c0.011,0.052,0.003,0.096-0.024,0.129c-0.025,0.037-0.064,0.059-0.115,0.068
					l-2.852,0.562c-0.051,0.009-0.091,0.004-0.124-0.016c-0.033-0.022-0.053-0.051-0.06-0.087c-0.007-0.034,0.002-0.068,0.023-0.099
					c0.021-0.031,0.057-0.051,0.105-0.061l0.522-0.103l-0.606-3.08l-0.416,0.082c-0.047,0.009-0.085,0.004-0.117-0.018
					c-0.029-0.02-0.048-0.047-0.055-0.083c-0.011-0.037,0-0.07,0.021-0.104c0.021-0.031,0.057-0.053,0.104-0.062l2.707-0.532
					c0.049-0.01,0.093-0.003,0.133,0.02c0.037,0.024,0.061,0.062,0.07,0.112l0.164,0.832c0.008,0.043,0.004,0.079-0.016,0.106
					c-0.022,0.029-0.047,0.047-0.08,0.054c-0.034,0.006-0.064,0.002-0.094-0.014c-0.031-0.016-0.048-0.042-0.058-0.078l-0.192-0.743
					l-1.877,0.368l0.262,1.329l1.006-0.197l-0.041-0.418c-0.006-0.045,0.003-0.081,0.021-0.11c0.018-0.029,0.043-0.047,0.072-0.054
					c0.034-0.006,0.064,0.003,0.094,0.025c0.027,0.023,0.046,0.063,0.057,0.115L28.015,9.619z"/>
				<path fill="#55ACEE" d="M34.179,8.321c-0.011,0.045-0.031,0.078-0.061,0.095c-0.03,0.021-0.061,0.026-0.093,0.021
					c-0.041-0.007-0.07-0.029-0.097-0.064c-0.023-0.037-0.031-0.081-0.021-0.131l0.172-0.908c0.021-0.109,0.076-0.157,0.162-0.142
					l2.824,0.541c0.082,0.016,0.113,0.078,0.091,0.188l-0.172,0.907c-0.011,0.051-0.03,0.088-0.065,0.11
					c-0.031,0.024-0.069,0.03-0.105,0.024c-0.04-0.009-0.066-0.026-0.089-0.055c-0.021-0.029-0.031-0.062-0.022-0.106L36.83,7.96
					l-1.085-0.206l-0.589,3.078l0.746,0.144c0.049,0.009,0.083,0.03,0.103,0.06c0.024,0.031,0.03,0.064,0.024,0.098
					c-0.007,0.038-0.027,0.066-0.061,0.089c-0.031,0.021-0.072,0.026-0.123,0.018l-1.773-0.34c-0.051-0.009-0.089-0.029-0.111-0.061
					c-0.025-0.033-0.033-0.068-0.025-0.105c0.007-0.035,0.027-0.062,0.059-0.083c0.035-0.02,0.073-0.025,0.121-0.017l0.745,0.144
					l0.589-3.082l-1.074-0.205L34.179,8.321z"/>
				<path fill="#55ACEE" d="M39.201,12.268c-0.237,0.021-0.471-0.016-0.709-0.111c-0.242-0.095-0.438-0.231-0.594-0.407
					c-0.153-0.177-0.258-0.373-0.312-0.584c-0.053-0.214-0.07-0.436-0.053-0.668c0.02-0.231,0.072-0.458,0.161-0.683
					c0.089-0.222,0.205-0.425,0.352-0.607c0.148-0.184,0.314-0.334,0.502-0.453c0.185-0.12,0.396-0.19,0.631-0.215
					c0.234-0.024,0.47,0.013,0.711,0.106c0.238,0.096,0.436,0.232,0.59,0.411c0.153,0.18,0.258,0.375,0.311,0.591
					c0.053,0.215,0.069,0.438,0.051,0.673c-0.018,0.234-0.074,0.461-0.162,0.686c-0.09,0.224-0.207,0.425-0.354,0.606
					c-0.146,0.179-0.311,0.328-0.496,0.446C39.644,12.176,39.433,12.248,39.201,12.268z M40.19,9.155
					c-0.112-0.11-0.243-0.195-0.399-0.257c-0.156-0.062-0.312-0.093-0.468-0.09c-0.157,0.004-0.302,0.035-0.435,0.095
					c-0.131,0.06-0.258,0.141-0.375,0.243c-0.118,0.102-0.221,0.219-0.312,0.352c-0.091,0.133-0.166,0.276-0.227,0.43
					c-0.076,0.189-0.125,0.385-0.143,0.58c-0.02,0.196-0.007,0.385,0.031,0.565c0.041,0.182,0.122,0.344,0.247,0.493
					c0.122,0.148,0.282,0.262,0.479,0.341c0.198,0.078,0.393,0.106,0.584,0.084c0.194-0.022,0.366-0.086,0.518-0.189
					c0.152-0.103,0.289-0.233,0.412-0.388c0.122-0.156,0.22-0.329,0.296-0.519c0.062-0.154,0.106-0.311,0.13-0.47
					c0.029-0.158,0.033-0.314,0.016-0.47c-0.016-0.155-0.051-0.299-0.104-0.434C40.386,9.387,40.302,9.265,40.19,9.155z"/>
				<path fill="#55ACEE" d="M45.529,13.33c-0.035,0.033-0.07,0.049-0.104,0.049c-0.034,0-0.065-0.012-0.087-0.035
					c-0.03-0.026-0.045-0.062-0.047-0.106c0-0.043,0.016-0.084,0.053-0.122l0.635-0.668c0.077-0.082,0.148-0.093,0.213-0.033
					l2.083,1.979c0.063,0.058,0.054,0.128-0.024,0.21l-0.637,0.668c-0.035,0.039-0.072,0.06-0.112,0.062
					c-0.042,0-0.075-0.015-0.103-0.042c-0.027-0.025-0.041-0.053-0.045-0.091c-0.002-0.035,0.01-0.07,0.037-0.102l0.562-0.64
					l-0.801-0.759l-2.158,2.274l0.551,0.522c0.035,0.033,0.053,0.068,0.055,0.106c0.002,0.037-0.01,0.07-0.033,0.095
					c-0.027,0.027-0.059,0.042-0.1,0.042c-0.039,0-0.075-0.017-0.111-0.053l-1.313-1.243c-0.036-0.035-0.057-0.071-0.059-0.111
					c-0.001-0.041,0.011-0.074,0.036-0.102c0.025-0.026,0.057-0.039,0.094-0.038c0.039,0.001,0.076,0.018,0.109,0.05l0.552,0.523
					l2.159-2.274l-0.792-0.752L45.529,13.33z"/>
				<path fill="#55ACEE" d="M46.261,17.643c-0.028-0.039-0.039-0.079-0.033-0.118c0.007-0.038,0.025-0.067,0.055-0.091
					c0.029-0.021,0.061-0.027,0.097-0.021c0.038,0.005,0.069,0.028,0.099,0.067l0.226,0.318l2.55-1.822L49.058,15.7
					c-0.027-0.04-0.039-0.08-0.034-0.117c0.005-0.036,0.024-0.067,0.053-0.087c0.031-0.022,0.064-0.029,0.103-0.021
					c0.039,0.006,0.072,0.03,0.1,0.069l0.551,0.771c0.028,0.039,0.039,0.078,0.033,0.117c-0.005,0.039-0.024,0.068-0.053,0.092
					c-0.031,0.018-0.064,0.027-0.102,0.021c-0.033-0.005-0.066-0.028-0.094-0.068l-0.184-0.255l-1.143,0.815l0.985,1.379
					l1.144-0.814l-0.185-0.256c-0.026-0.038-0.039-0.075-0.032-0.113c0.006-0.035,0.023-0.066,0.053-0.086
					c0.031-0.021,0.063-0.028,0.104-0.022c0.037,0.009,0.071,0.031,0.101,0.07l0.535,0.751c0.027,0.039,0.039,0.079,0.035,0.117
					c-0.006,0.038-0.021,0.066-0.049,0.086c-0.031,0.022-0.066,0.029-0.105,0.022s-0.072-0.029-0.101-0.069l-0.183-0.254
					l-2.553,1.819l0.183,0.257c0.028,0.041,0.041,0.081,0.036,0.117c-0.006,0.04-0.024,0.068-0.055,0.09
					c-0.028,0.021-0.062,0.026-0.102,0.02c-0.039-0.008-0.072-0.03-0.1-0.07l-0.535-0.75c-0.029-0.04-0.041-0.078-0.035-0.117
					s0.025-0.07,0.054-0.091c0.03-0.021,0.063-0.029,0.101-0.022c0.037,0.007,0.068,0.029,0.096,0.067l0.182,0.256l1.206-0.86
					l-0.983-1.38l-1.208,0.859l0.183,0.257c0.029,0.04,0.039,0.076,0.035,0.113c-0.006,0.035-0.021,0.062-0.049,0.084
					c-0.031,0.021-0.068,0.03-0.107,0.024c-0.04-0.007-0.072-0.031-0.1-0.07L46.261,17.643z"/>
				<path fill="#55ACEE" d="M50.511,22.115c-0.047,0.022-0.09,0.027-0.125,0.018c-0.033-0.009-0.057-0.03-0.07-0.062
					c-0.014-0.027-0.014-0.058-0.002-0.091c0.01-0.033,0.035-0.058,0.072-0.078l0.406-0.229l-0.425-0.932l-1.406,0.64l0.801,1.757
					l0.738-0.281c0.031-0.011,0.065-0.011,0.098,0.005c0.031,0.014,0.057,0.038,0.07,0.071c0.014,0.032,0.014,0.065,0,0.102
					c-0.014,0.037-0.047,0.063-0.095,0.086l-0.77,0.352c-0.048,0.021-0.093,0.024-0.133,0.006c-0.039-0.018-0.071-0.05-0.092-0.097
					l-1.205-2.646c-0.02-0.045-0.025-0.087-0.012-0.124c0.014-0.036,0.036-0.062,0.068-0.078c0.031-0.015,0.066-0.015,0.1,0.002
					c0.038,0.014,0.064,0.042,0.086,0.087l0.221,0.485l2.856-1.302l-0.177-0.385c-0.02-0.046-0.021-0.084-0.01-0.118
					c0.012-0.035,0.037-0.06,0.068-0.074c0.034-0.016,0.07-0.016,0.105-0.002c0.037,0.015,0.066,0.044,0.085,0.088l1.144,2.509
					c0.021,0.046,0.025,0.093,0.01,0.133c-0.013,0.042-0.045,0.075-0.094,0.096l-0.769,0.35c-0.042,0.021-0.075,0.022-0.108,0.009
					c-0.033-0.013-0.057-0.036-0.07-0.063c-0.014-0.032-0.016-0.062-0.01-0.096c0.01-0.032,0.03-0.058,0.064-0.075l0.677-0.357
					l-0.793-1.739l-1.228,0.562l0.422,0.93l0.397-0.135c0.042-0.014,0.08-0.016,0.11-0.005c0.036,0.012,0.059,0.031,0.07,0.061
					c0.012,0.03,0.012,0.062-0.003,0.095c-0.017,0.032-0.049,0.06-0.097,0.082L50.511,22.115z"/>
				<path fill="#55ACEE" d="M50.745,29.827c-0.003-0.05,0.009-0.09,0.036-0.119c0.025-0.028,0.056-0.044,0.094-0.047
					c0.037-0.001,0.069,0.01,0.094,0.036c0.029,0.026,0.043,0.063,0.047,0.111l0.02,0.416l2.809-0.134l-1.895-0.717
					c-0.103-0.039-0.156-0.105-0.162-0.2c-0.004-0.085,0.039-0.149,0.129-0.195l1.817-0.926l-2.796,0.134l0.016,0.378
					c0.004,0.051-0.006,0.089-0.031,0.117s-0.057,0.044-0.092,0.045c-0.037,0.004-0.07-0.01-0.1-0.036
					c-0.027-0.028-0.043-0.066-0.045-0.117l-0.053-1.088c-0.002-0.05,0.008-0.089,0.033-0.118c0.023-0.028,0.057-0.043,0.094-0.044
					c0.035-0.002,0.066,0.009,0.096,0.035c0.029,0.025,0.043,0.064,0.044,0.111l0.022,0.418l3.131-0.152l-0.016-0.372
					c-0.004-0.049,0.008-0.088,0.03-0.115c0.026-0.029,0.058-0.044,0.093-0.046c0.037-0.001,0.07,0.011,0.1,0.037
					c0.029,0.027,0.043,0.066,0.046,0.113l0.03,0.621c0.002,0.062-0.031,0.111-0.103,0.148l-2.034,1.044l2.139,0.81
					c0.064,0.022,0.097,0.065,0.101,0.136l0.027,0.602c0.005,0.051-0.009,0.091-0.033,0.12c-0.025,0.031-0.059,0.046-0.096,0.048
					c-0.035,0-0.068-0.013-0.093-0.039c-0.03-0.027-0.043-0.064-0.045-0.111l-0.018-0.356l-3.133,0.152l0.019,0.401
					c0.002,0.049-0.007,0.086-0.032,0.113c-0.024,0.028-0.055,0.042-0.091,0.044c-0.038,0.001-0.071-0.011-0.099-0.038
					c-0.029-0.026-0.047-0.064-0.049-0.113L50.745,29.827z"/>
				<path fill="#55ACEE" d="M50.544,33.6c-0.074-0.222-0.096-0.461-0.06-0.716c0.039-0.254,0.123-0.478,0.26-0.669
					c0.135-0.191,0.301-0.339,0.495-0.44c0.195-0.103,0.406-0.171,0.637-0.208c0.229-0.036,0.462-0.038,0.701-0.003
					c0.236,0.034,0.462,0.102,0.676,0.202c0.208,0.1,0.398,0.227,0.557,0.38c0.16,0.152,0.275,0.341,0.354,0.563
					c0.08,0.222,0.102,0.463,0.064,0.717c-0.039,0.255-0.125,0.479-0.264,0.671c-0.136,0.19-0.303,0.336-0.502,0.438
					c-0.195,0.102-0.41,0.17-0.64,0.206c-0.234,0.037-0.467,0.039-0.703,0.004c-0.239-0.035-0.464-0.103-0.675-0.204
					c-0.209-0.099-0.394-0.226-0.548-0.378C50.738,34.01,50.621,33.823,50.544,33.6z M53.802,33.836
					c0.08-0.133,0.135-0.283,0.158-0.449c0.022-0.166,0.016-0.323-0.023-0.476c-0.041-0.151-0.104-0.285-0.193-0.398
					c-0.089-0.115-0.198-0.219-0.324-0.31c-0.125-0.091-0.264-0.164-0.415-0.222c-0.15-0.057-0.306-0.097-0.472-0.119
					c-0.201-0.031-0.403-0.031-0.596-0.004c-0.196,0.028-0.377,0.083-0.542,0.163c-0.167,0.082-0.308,0.199-0.423,0.354
					c-0.115,0.156-0.188,0.338-0.219,0.546c-0.029,0.211-0.012,0.405,0.055,0.588s0.17,0.335,0.305,0.459
					c0.135,0.125,0.295,0.229,0.473,0.309c0.181,0.082,0.371,0.138,0.574,0.168c0.166,0.024,0.325,0.029,0.488,0.018
					c0.158-0.011,0.311-0.044,0.46-0.095c0.146-0.052,0.278-0.12,0.397-0.204C53.623,34.082,53.722,33.971,53.802,33.836z"/>
				<path fill="#55ACEE" d="M49.533,37.186c-0.033-0.232-0.007-0.471,0.077-0.715c0.084-0.243,0.212-0.445,0.382-0.608
					c0.17-0.162,0.359-0.274,0.57-0.338c0.21-0.062,0.432-0.091,0.664-0.083c0.232,0.007,0.462,0.052,0.689,0.131
					c0.227,0.078,0.436,0.188,0.623,0.326c0.188,0.141,0.348,0.3,0.473,0.481c0.129,0.18,0.211,0.387,0.245,0.62
					s0.007,0.471-0.077,0.715c-0.084,0.242-0.211,0.445-0.383,0.607c-0.171,0.162-0.363,0.274-0.578,0.336
					c-0.211,0.062-0.436,0.089-0.67,0.082c-0.232-0.01-0.464-0.053-0.691-0.133c-0.227-0.079-0.434-0.188-0.622-0.326
					c-0.185-0.138-0.341-0.297-0.466-0.477C49.642,37.624,49.564,37.418,49.533,37.186z M52.685,38.038
					c0.104-0.115,0.186-0.254,0.238-0.411c0.057-0.158,0.079-0.316,0.069-0.472c-0.009-0.157-0.05-0.299-0.113-0.429
					c-0.066-0.129-0.151-0.251-0.258-0.363c-0.107-0.115-0.229-0.214-0.365-0.298c-0.137-0.084-0.284-0.153-0.44-0.209
					c-0.194-0.066-0.389-0.104-0.588-0.114c-0.195-0.01-0.383,0.008-0.562,0.057c-0.178,0.047-0.338,0.136-0.482,0.267
					c-0.143,0.132-0.248,0.296-0.318,0.495c-0.069,0.2-0.091,0.396-0.057,0.588c0.03,0.19,0.1,0.359,0.211,0.509
					c0.11,0.148,0.246,0.278,0.406,0.394c0.16,0.114,0.338,0.206,0.531,0.272c0.156,0.056,0.314,0.093,0.473,0.111
					c0.16,0.018,0.318,0.017,0.473-0.005c0.152-0.024,0.295-0.064,0.428-0.126C52.462,38.243,52.58,38.155,52.685,38.038z"/>
				<path fill="#55ACEE" d="M51.841,40.217c0.025-0.041,0.055-0.067,0.092-0.077c0.035-0.012,0.068-0.008,0.102,0.011
					c0.031,0.02,0.052,0.048,0.061,0.084c0.01,0.039,0.002,0.079-0.021,0.121l-0.449,0.779c-0.031,0.051-0.074,0.074-0.131,0.07
					l-3.354-0.179l2.422,1.402l0.232-0.405c0.024-0.042,0.055-0.068,0.092-0.077c0.035-0.012,0.07-0.007,0.102,0.011
					c0.031,0.019,0.053,0.047,0.06,0.083c0.01,0.04,0.002,0.081-0.022,0.125l-0.53,0.914c-0.023,0.042-0.056,0.068-0.092,0.079
					c-0.037,0.012-0.074,0.007-0.106-0.012c-0.031-0.018-0.05-0.044-0.063-0.08c-0.009-0.036,0-0.075,0.026-0.117l0.15-0.26
					l-2.823-1.633c-0.054-0.033-0.088-0.07-0.104-0.114c-0.015-0.041-0.009-0.08,0.013-0.119c0.037-0.064,0.1-0.094,0.191-0.092
					l3.753,0.168l-2.712-1.568l-0.217,0.374c-0.023,0.042-0.053,0.068-0.092,0.078c-0.037,0.008-0.068,0.006-0.103-0.013
					c-0.032-0.018-0.052-0.047-0.06-0.083c-0.012-0.037-0.002-0.077,0.025-0.121l0.561-0.972c0.025-0.044,0.057-0.07,0.092-0.08
					c0.037-0.011,0.07-0.008,0.105,0.012c0.029,0.018,0.049,0.046,0.059,0.082c0.009,0.037,0.002,0.076-0.021,0.119l-0.197,0.343
					l2.715,1.57L51.841,40.217z"/>
			</g>
			<g>
				<path fill="#55ACEE" d="M20.058,47.09c0.268,0.178,0.438,0.379,0.516,0.603s0.036,0.455-0.122,0.691
					c-0.099,0.146-0.241,0.268-0.43,0.364c-0.188,0.097-0.396,0.17-0.62,0.223c-0.224,0.051-0.451,0.098-0.678,0.14
					c-0.225,0.042-0.453,0.099-0.68,0.171c-0.228,0.072-0.41,0.161-0.551,0.268l1.293,0.864l0.35-0.456
					c0.023-0.032,0.058-0.051,0.102-0.053c0.041-0.005,0.078,0.006,0.113,0.027c0.031,0.023,0.053,0.051,0.059,0.09
					c0.008,0.036-0.005,0.077-0.033,0.12l-0.361,0.543c-0.027,0.04-0.062,0.062-0.104,0.069c-0.043,0.006-0.084-0.006-0.125-0.033
					l-1.668-1.111c0.023-0.058,0.037-0.094,0.049-0.11c0.067-0.106,0.171-0.2,0.307-0.281c0.134-0.08,0.283-0.146,0.441-0.194
					c0.16-0.05,0.332-0.094,0.514-0.134c0.184-0.039,0.363-0.077,0.543-0.115c0.18-0.037,0.347-0.077,0.506-0.123
					c0.156-0.045,0.298-0.103,0.426-0.171c0.127-0.071,0.223-0.152,0.287-0.247c0.123-0.186,0.155-0.354,0.098-0.502
					c-0.061-0.15-0.2-0.297-0.42-0.443c-0.199-0.133-0.405-0.213-0.621-0.241c-0.179,0.208-0.287,0.328-0.328,0.362
					c-0.072,0.061-0.135,0.072-0.187,0.037c-0.052-0.034-0.077-0.079-0.077-0.133c-0.002-0.058,0.019-0.117,0.058-0.179
					C19.003,46.702,19.452,46.686,20.058,47.09z"/>
				<path fill="#55ACEE" d="M23.276,48.84c0.179,0.076,0.319,0.197,0.421,0.358c0.104,0.161,0.163,0.343,0.182,0.549
					c0.018,0.204,0.01,0.418-0.031,0.645c-0.039,0.226-0.107,0.449-0.203,0.67c-0.094,0.219-0.21,0.42-0.348,0.604
					c-0.136,0.184-0.288,0.339-0.449,0.463c-0.162,0.124-0.336,0.204-0.523,0.239c-0.189,0.035-0.371,0.015-0.548-0.061
					c-0.144-0.063-0.263-0.152-0.356-0.27s-0.163-0.25-0.201-0.398c-0.039-0.148-0.057-0.31-0.055-0.482
					c0.005-0.175,0.027-0.352,0.069-0.53c0.041-0.18,0.101-0.356,0.177-0.531c0.095-0.222,0.213-0.423,0.35-0.606
					s0.287-0.338,0.449-0.464c0.16-0.127,0.336-0.208,0.521-0.244C22.919,48.744,23.099,48.763,23.276,48.84z M21.882,52.062
					c0.182,0.077,0.368,0.071,0.562-0.019c0.194-0.088,0.37-0.229,0.522-0.422c0.156-0.192,0.289-0.418,0.401-0.675
					c0.11-0.259,0.183-0.511,0.218-0.76c0.037-0.249,0.018-0.474-0.051-0.678c-0.068-0.203-0.189-0.345-0.366-0.42
					c-0.136-0.06-0.277-0.07-0.421-0.031c-0.146,0.036-0.283,0.111-0.411,0.225c-0.13,0.114-0.25,0.25-0.362,0.41
					c-0.112,0.16-0.208,0.337-0.29,0.525c-0.111,0.258-0.184,0.509-0.219,0.754s-0.018,0.469,0.049,0.671
					C21.582,51.845,21.703,51.984,21.882,52.062z"/>
				<path fill="#55ACEE" d="M27.084,50.244l-0.739,3.207l1.041,0.239c0.036,0.009,0.062,0.026,0.08,0.058
					c0.016,0.031,0.017,0.062,0.012,0.095c-0.01,0.034-0.025,0.061-0.053,0.081c-0.029,0.02-0.061,0.025-0.1,0.017l-2.447-0.563
					c-0.047-0.011-0.076-0.031-0.095-0.062s-0.024-0.064-0.017-0.098c0.007-0.033,0.025-0.06,0.055-0.079
					c0.028-0.019,0.062-0.024,0.104-0.014l1.127,0.259l0.693-3.02l-1.131,0.229c-0.018,0.005-0.037,0.005-0.055,0
					c-0.034-0.008-0.062-0.028-0.078-0.063c-0.018-0.033-0.023-0.068-0.016-0.104c0.012-0.051,0.045-0.08,0.098-0.089l1.363-0.268
					c0.02-0.004,0.041-0.004,0.064,0.002c0.034,0.009,0.061,0.026,0.08,0.056C27.09,50.157,27.095,50.195,27.084,50.244z"/>
				<path fill="#55ACEE" d="M31.569,53.143c-0.015,0.356-0.136,0.636-0.364,0.839c-0.227,0.203-0.518,0.297-0.873,0.281
					c-0.405-0.018-0.707-0.155-0.902-0.412c-0.194-0.258-0.281-0.602-0.262-1.032c0.014-0.286,0.058-0.556,0.135-0.808
					c0.078-0.251,0.186-0.48,0.322-0.685c0.132-0.205,0.273-0.385,0.416-0.539c0.145-0.157,0.311-0.312,0.502-0.467
					c0.026-0.024,0.057-0.036,0.087-0.033c0.039,0,0.073,0.018,0.098,0.049c0.029,0.031,0.043,0.064,0.039,0.102
					c0,0.026-0.014,0.051-0.039,0.072c-0.289,0.22-0.545,0.485-0.771,0.795c-0.225,0.31-0.371,0.648-0.441,1.011
					c0.123-0.151,0.271-0.261,0.449-0.333c0.178-0.07,0.355-0.102,0.536-0.095c0.348,0.016,0.617,0.138,0.809,0.369
					C31.5,52.489,31.589,52.784,31.569,53.143z M30.341,54.006c0.277,0.012,0.499-0.066,0.664-0.232
					c0.165-0.168,0.252-0.38,0.264-0.635c0.007-0.128-0.003-0.248-0.03-0.358c-0.027-0.115-0.069-0.217-0.129-0.31
					c-0.06-0.095-0.142-0.17-0.247-0.229c-0.104-0.058-0.225-0.09-0.363-0.095c-0.303-0.016-0.549,0.064-0.738,0.237
					s-0.289,0.387-0.303,0.642c-0.006,0.128,0.008,0.247,0.037,0.358c0.033,0.111,0.082,0.212,0.147,0.305
					c0.067,0.091,0.161,0.164,0.28,0.221C30.042,53.967,30.183,53.998,30.341,54.006z"/>
			</g>
		</g>
		<path fill="#55ACEE" d="M39.564,26.582c-0.59,0.261-1.222,0.438-1.886,0.517c0.678-0.405,1.198-1.048,1.442-1.813
			c-0.632,0.375-1.336,0.648-2.082,0.796c-0.597-0.639-1.447-1.035-2.391-1.035c-1.812,0-3.279,1.469-3.279,3.278
			c0,0.257,0.029,0.507,0.086,0.746c-2.725-0.137-5.141-1.44-6.758-3.425c-0.283,0.484-0.445,1.047-0.445,1.648
			c0,1.137,0.58,2.14,1.459,2.728c-0.538-0.016-1.043-0.164-1.483-0.409c0,0.014,0,0.026,0,0.042c0,1.587,1.129,2.912,2.63,3.213
			c-0.275,0.075-0.566,0.115-0.866,0.115c-0.21,0-0.415-0.018-0.616-0.058c0.418,1.302,1.629,2.25,3.062,2.275
			c-1.121,0.88-2.535,1.404-4.07,1.404c-0.266,0-0.525-0.016-0.782-0.046c1.45,0.931,3.174,1.473,5.023,1.473
			c6.03,0,9.327-4.996,9.327-9.327c0-0.142-0.004-0.284-0.008-0.423C38.567,27.818,39.124,27.241,39.564,26.582z"/>
	</g>
</g>
<g>
	<rect x="-218.891" y="-98.472" fill="none" width="282.781" height="154.087"/>
	<text transform="matrix(0.9265 0 0 1 -218.8955 -86.439)" fill="#999999" font-family="'PTSerif-Regular'" font-size="16">Write your message</text>
</g>
</svg>
