<?xml version="1.0" encoding="utf-8"?>
<!-- Generator: Adobe Illustrator 16.0.0, SVG Export Plug-In . SVG Version: 6.00 Build 0)  -->
<!DOCTYPE svg PUBLIC "-//W3C//DTD SVG 1.1//EN" "http://www.w3.org/Graphics/SVG/1.1/DTD/svg11.dtd">
<svg version="1.1" id="Livello_1" xmlns="http://www.w3.org/2000/svg" xmlns:xlink="http://www.w3.org/1999/xlink" x="0px" y="0px"
	 width="60px" height="60px" viewBox="0 0 60 60" enable-background="new 0 0 60 60" xml:space="preserve">
<g>
	<path fill="#CCCCCC" d="M30,5.217c-13.686,0-24.783,11.098-24.783,24.784c0,13.688,11.097,24.782,24.783,24.782
		c13.686,0,24.783-11.093,24.783-24.782C54.783,16.315,43.686,5.217,30,5.217z M42.486,25.006c0.01,0.269,0.021,0.534,0.021,0.805
		c0,8.255-6.283,17.772-17.776,17.772c-3.525,0-6.808-1.037-9.573-2.807c0.49,0.057,0.988,0.089,1.491,0.089
		c2.926,0,5.62-1,7.758-2.674c-2.734-0.052-5.042-1.857-5.836-4.337c0.381,0.072,0.772,0.109,1.177,0.109
		c0.57,0,1.12-0.073,1.644-0.215c-2.857-0.577-5.011-3.102-5.011-6.125c0-0.028,0-0.052,0-0.082c0.842,0.469,1.81,0.75,2.83,0.784
		c-1.676-1.125-2.777-3.035-2.777-5.2c0-1.144,0.305-2.215,0.845-3.142c3.082,3.78,7.682,6.268,12.874,6.526
		c-0.106-0.456-0.163-0.935-0.163-1.424c0-3.447,2.797-6.244,6.246-6.244c1.797,0,3.42,0.757,4.561,1.973
		c1.421-0.281,2.756-0.8,3.963-1.514c-0.464,1.457-1.458,2.682-2.744,3.456c1.263-0.153,2.469-0.488,3.585-0.985
		C44.767,23.024,43.705,24.126,42.486,25.006z"/>
</g>
</svg>
