<?xml version="1.0" encoding="utf-8"?>
<!-- Generator: Adobe Illustrator 16.0.0, SVG Export Plug-In . SVG Version: 6.00 Build 0)  -->
<!DOCTYPE svg PUBLIC "-//W3C//DTD SVG 1.1//EN" "http://www.w3.org/Graphics/SVG/1.1/DTD/svg11.dtd">
<svg version="1.1" id="Livello_1" xmlns="http://www.w3.org/2000/svg" xmlns:xlink="http://www.w3.org/1999/xlink" x="0px" y="0px"
	 width="60px" height="60px" viewBox="0 0 60 60" enable-background="new 0 0 60 60" xml:space="preserve">
<path fill="#CCCCCC" d="M29.997,4.982c-13.819,0-25.015,11.203-25.015,25.019c0,13.819,11.196,25.017,25.015,25.017
	c13.815,0,25.021-11.198,25.021-25.017C55.018,16.185,43.812,4.982,29.997,4.982z M36.62,29.897h-4.332c0,6.922,0,15.448,0,15.448
	h-6.422c0,0,0-8.441,0-15.448h-3.054v-5.456h3.054v-3.536c0-2.529,1.201-6.476,6.48-6.476l4.756,0.018v5.294c0,0-2.89,0-3.456,0
	c-0.559,0-1.359,0.284-1.359,1.485v3.214h4.896L36.62,29.897z"/>
</svg>
